<svg width="1974" height="725" viewBox="0 0 1974 725" fill="none" xmlns="http://www.w3.org/2000/svg">
<path d="M1887.7 655.304C1873.22 645.383 1843.65 652.065 1821.82 659.262C1818.58 654.944 1814.58 650.523 1809.81 646.206C1856.82 617.832 1921.76 557.28 1887.32 552.192C1857.42 547.72 1817.05 602.206 1795.44 635.36C1773.06 621.224 1738.72 610.841 1686.28 614.439C1550.24 623.794 1443.93 541.551 1365.6 569C1303.29 590.794 1246.24 603.028 1191.17 598.864C1193.53 561.187 1194.08 487.168 1162.48 479.509C1130.45 471.696 1161.88 555.738 1179.32 597.682C1175.21 597.168 1171.15 596.603 1167.03 595.935C1155.73 575.014 1137.08 547.668 1116.57 546.743C1097.26 545.869 1121.07 570.491 1144.49 591.308C1077.18 578.047 997.316 629.346 996 690C996 690 1252.14 690 1416.26 690C1580.38 690 1836.52 690 1836.52 690C1836.52 690 1835.04 681.159 1828.46 669.491C1860.99 668.822 1903.39 666.098 1887.7 655.304Z" fill="#298358"/>
<path d="M1174.08 643.396H959.25V690.398H1174.08V643.396Z" fill="#4A75CB"/>
<path d="M1107.85 643.396H893.014V690.398H1107.85V643.396Z" fill="#699DEE"/>
<path d="M1258.64 690.401H1418.62V473.788H1258.64V690.401Z" fill="#D86713"/>
<path d="M1209.3 690.401H1369.28V473.788H1209.3V690.401Z" fill="#F1A34F"/>
<path d="M1369.28 473.785L1418.6 506.306V473.785H1369.28Z" fill="#C95C12"/>
<path d="M875.403 521.767C875.403 521.767 845.503 543.309 839.65 542.021C833.798 540.733 861.517 518.778 861.517 518.778C851.089 513.933 818.689 516.974 818.689 516.974C818.689 516.974 807.888 550.679 802.568 548.051C797.248 545.371 813.687 518.675 813.687 518.675C802.089 518.005 787.831 526.354 787.831 526.354C768.359 541.248 789.108 564.749 789.108 564.749C789.108 564.749 785.118 576.345 772.775 586.91C772.775 586.91 755.218 599.486 753.994 622.007L757.186 622.265C757.186 622.265 762.241 601.289 771.445 591.394C771.817 591.033 772.296 590.518 772.987 589.9C774.477 588.56 775.541 587.529 776.233 586.807C780.808 582.53 787.139 577.118 790.172 576.603C790.172 576.603 790.012 576.036 790.066 575.108C790.119 575.572 790.172 576.087 790.172 576.603C791.236 588.456 814.964 598.816 829.595 600.98C844.226 603.093 839.704 597.269 834.649 588.663C829.595 580.056 813.687 576.19 810.016 572.171C806.399 568.202 813.9 568.202 822.732 572.068C831.564 575.984 832.734 586.343 846.886 592.889C861.038 599.434 882.266 576.706 882.266 576.706C870.987 576.139 854.919 564.285 855.505 560.678C856.09 557.07 882.798 566.914 887.373 567.429C891.949 567.893 902.323 562.378 903.919 544.598C905.568 526.714 875.403 521.767 875.403 521.767Z" fill="#82B378"/>
<path d="M716.54 535.167C716.54 535.167 749.579 517.231 734.15 492.906C734.15 492.906 721.807 477.96 708.613 474.146C708.613 474.146 715.689 510.428 708.613 511.305C701.537 512.181 703.772 470.332 703.772 470.332C703.772 470.332 668.977 454.098 655.304 455.386C655.304 455.386 676.904 490.793 669.828 489.968C662.752 489.092 638.545 453.273 638.545 453.273C638.545 453.273 602.846 446.883 597.154 467.343C591.408 487.855 600.665 498.059 605.985 499.348C611.252 500.636 645.196 500.224 644.344 504.45C643.44 508.728 620.563 515.531 607.794 511.717C607.794 511.717 621.893 545.423 640.407 543.722C658.922 542.021 664.615 530.94 676.106 530.064C687.598 529.188 695.951 532.177 690.205 535.167C684.459 538.156 665.093 536.146 655.836 543.773C646.579 551.401 639.077 556.091 656.262 559.492C673.446 562.894 704.304 560.781 710.475 547.948C716.54 535.167 716.54 535.167 716.54 535.167Z" fill="#A8D29F"/>
<path d="M725.319 566.295C716.061 549.649 716.487 535.115 716.487 535.115C705.953 502.698 613.434 473.682 613.434 473.682C731.065 519.757 710.369 547.948 710.369 547.948C713.561 549.752 718.296 558.307 721.595 564.852C722.073 565.986 722.818 567.532 723.935 569.594C724.361 570.521 724.733 571.294 724.999 571.861C731.065 586.55 727.872 611.906 727.872 611.906L731.543 612.885C739.63 587.271 725.319 566.295 725.319 566.295Z" fill="#82B378"/>
<path d="M769.104 510.428C769.104 510.428 725.531 486.773 745.855 454.716C745.855 454.716 762.135 435.029 779.532 429.978C779.532 429.978 770.222 477.805 779.532 478.939C788.842 480.073 785.916 424.928 785.916 424.928C785.916 424.928 831.777 403.539 849.813 405.24C849.813 405.24 821.349 451.933 830.66 450.799C839.97 449.666 871.892 402.406 871.892 402.406C871.892 402.406 918.923 393.953 926.478 420.959C934.032 447.965 921.849 461.468 914.879 463.168C907.91 464.869 863.166 464.302 864.337 469.92C865.507 475.537 895.727 484.557 912.539 479.506C912.539 479.506 893.971 523.931 869.551 521.715C845.131 519.448 837.629 504.811 822.52 503.729C807.41 502.595 796.397 506.563 803.952 510.48C811.507 514.397 837.044 511.768 849.281 521.818C861.464 531.868 871.36 538.053 848.695 542.536C826.031 547.02 785.384 544.237 777.244 527.333C769.104 510.428 769.104 510.428 769.104 510.428Z" fill="#A8D29F"/>
<path d="M904.984 429.411C904.984 429.411 782.99 467.652 769.051 510.429C769.051 510.429 769.637 529.549 757.453 551.504C757.453 551.504 738.619 579.18 749.366 612.834L754.208 611.597C754.208 611.597 749.952 578.2 757.985 558.822C758.304 558.101 758.783 557.07 759.368 555.833C760.805 553.05 761.816 551.04 762.401 549.546C766.764 540.887 773.041 529.652 777.191 527.281C777.245 527.281 749.952 490.174 904.984 429.411Z" fill="#82B378"/>
<path d="M788.629 685.244C785.171 685.656 781.607 685.863 778.042 685.863C730.905 685.863 692.705 648.859 692.705 603.196H713.88C713.88 645.406 746.493 680.193 788.629 685.244Z" fill="#FFB973"/>
<path d="M843.588 680.193H691.642C685.842 680.193 681.107 684.78 681.107 690.398H854.122C854.122 684.78 849.441 680.193 843.588 680.193Z" fill="#F1A34F"/>
<path d="M853.591 603.248H680.789C680.044 603.248 679.459 603.815 679.459 604.536C679.459 605.258 680.044 605.825 680.789 605.825H853.591C854.336 605.825 854.921 605.258 854.921 604.536C854.921 603.815 854.336 603.248 853.591 603.248Z" fill="#D86713"/>
<path d="M1512.03 167.961C1509.58 167.6 1502.08 174.249 1502.08 174.249C1486.17 176.053 1462.92 180.124 1454.52 181.67C1448.56 182.752 1432.6 177.496 1417.01 171.466C1398.44 164.25 1380.4 155.953 1380.4 155.953C1370.14 155.437 1358.43 173.63 1379.29 185.226C1382.48 186.978 1394.45 190.019 1408.23 192.751C1427.28 196.564 1449.73 199.863 1457.39 198.678C1466.27 197.338 1491.44 188.422 1506.39 181.619C1506.39 181.619 1506.39 181.619 1506.44 181.619C1506.49 181.619 1506.55 181.567 1506.6 181.567C1507.51 181.155 1511.18 179.557 1513.62 179.712C1516.44 179.866 1522.67 174.919 1522.88 173.579C1523.09 172.187 1514.53 168.322 1512.03 167.961Z" fill="#ED975D"/>
<path d="M1492.61 397.149L1483.83 398.85C1483.83 398.85 1443.71 355.197 1437.54 336.85C1434.24 327.058 1413.07 322.78 1390.94 317.266C1371.68 312.421 1351.73 306.649 1342.15 295.311C1321.67 270.933 1355.03 241.041 1355.03 241.041C1355.03 241.041 1390.51 261.502 1421.16 282.581C1442.54 297.321 1461.59 312.421 1464.46 321.079C1471.43 342.158 1486.22 382.203 1492.61 397.149Z" fill="#2B478B"/>
<path d="M1480.85 411.528H1485.8C1487.45 411.27 1488.67 410.806 1490.37 410.6C1492.93 410.291 1494.15 411.27 1494.36 411.528C1494.42 411.579 1494.42 411.579 1494.42 411.579H1515.38C1515.91 410.858 1515.38 409.157 1514.9 407.92C1514.58 407.096 1513.84 406.426 1512.93 406.168C1510.7 405.549 1506.33 404.983 1502.34 401.478C1500.11 399.52 1491.44 394.211 1491.44 394.211H1491.38C1491.17 394.211 1490.27 394.469 1486.38 397.716C1484.36 399.365 1480.9 395.397 1480.9 395.397C1480.9 395.397 1480.27 395.912 1479.79 396.891C1479.41 397.664 1479.09 398.695 1479.36 399.983C1479.68 401.787 1478.67 405.189 1477.87 407.508C1477.39 408.899 1476.97 409.879 1476.97 409.879C1476.97 409.879 1476.65 411.012 1480.85 411.528Z" fill="#233862"/>
<path d="M1421.16 282.581L1390.94 317.266C1371.68 312.421 1351.73 306.649 1342.15 295.311C1321.67 270.933 1355.03 241.041 1355.03 241.041C1355.03 241.041 1390.56 261.45 1421.16 282.581Z" fill="#1E3D70"/>
<path d="M1393.7 264.439C1393.7 264.439 1391.26 271.861 1387.32 283.096C1382.32 297.269 1374.82 317.42 1366.73 336.128C1364.97 340.251 1363.11 344.271 1361.3 348.188C1354.55 362.567 1347.68 374.936 1341.57 381.172C1330.66 392.459 1304.11 464.869 1304.11 464.869L1297.51 463.117C1297.51 463.117 1288.31 401.272 1320.98 366.072C1321.35 365.711 1321.61 365.247 1321.61 364.783C1322.04 359.578 1323.58 336.231 1326.99 312.576C1327.84 306.752 1328.74 300.98 1329.81 295.362C1329.86 295.001 1329.97 294.641 1330.02 294.28C1334.97 268.511 1339.76 257.07 1345.88 251.297L1391.04 263.77L1393.7 264.439Z" fill="#2B478B"/>
<path d="M1296.77 473.734H1301.72C1303.37 473.476 1304.59 473.012 1306.29 472.806C1308.85 472.497 1310.07 473.476 1310.28 473.734C1310.33 473.785 1310.33 473.785 1310.33 473.785H1331.3C1331.83 473.064 1331.3 471.363 1330.82 470.126C1330.5 469.302 1329.75 468.632 1328.85 468.374C1326.61 467.755 1322.25 467.188 1318.26 463.684C1316.03 461.726 1307.36 456.417 1307.36 456.417H1307.3C1307.09 456.417 1306.19 456.675 1302.3 459.922C1300.28 461.571 1296.82 457.603 1296.82 457.603C1296.82 457.603 1296.18 458.118 1295.7 459.097C1295.33 459.87 1295.01 460.901 1295.28 462.189C1295.6 463.993 1294.59 467.395 1293.79 469.714C1293.31 471.105 1292.88 472.085 1292.88 472.085C1292.88 472.085 1292.57 473.218 1296.77 473.734Z" fill="#233862"/>
<path d="M1306.45 180.279C1306.45 180.279 1298.9 198.162 1290.17 215.582C1282.83 230.219 1274.69 244.546 1269.53 247.587C1262.24 251.916 1242.18 264.027 1229.2 273.098C1229.2 273.098 1219.04 273.046 1217.5 274.902C1215.9 276.809 1212.28 285.261 1213.35 286.085C1214.41 286.961 1222.5 286.549 1224.41 284.591C1226.12 282.89 1229.95 281.653 1230.85 281.395C1230.9 281.395 1230.96 281.344 1231.01 281.344H1231.06C1246.86 276.654 1271.66 266.81 1279.16 262.017C1285.6 257.894 1299.96 240.784 1311.35 225.58C1319.65 214.551 1326.4 204.501 1327.52 201.151C1335.02 179.042 1313.74 173.218 1306.45 180.279Z" fill="#FFB27D"/>
<path d="M1345.98 110.084C1345.08 108.796 1344.17 107.714 1343.27 106.683C1344.39 106.683 1345.61 106.58 1346.62 106.219C1349.28 105.137 1350.5 96.9938 1350.08 94.5715C1349.71 92.1493 1345.98 85.1401 1341.46 84.4702C1336.94 83.7486 1332.2 88.6447 1332.2 88.6447C1333.05 85.1401 1340.71 83.0786 1340.71 83.0786C1324.86 85.9132 1325.71 96.1177 1325.82 97.0969C1311.35 92.0977 1302.83 118.537 1302.83 118.537L1340.34 139.976C1340.34 139.976 1340.45 134.152 1344.01 134.513C1349.6 135.08 1354.28 121.783 1345.98 110.084Z" fill="#2C3A64"/>
<path d="M1348.38 165.539C1339.76 169.456 1328.32 163.787 1328.37 163.735C1329.12 163.013 1328.85 160.9 1328.16 158.066C1327.47 155.128 1325.87 151.16 1322.95 146.367C1322.31 145.336 1321.72 144.357 1320.98 143.275L1321.99 142.914L1338.69 136.42C1338.69 136.42 1341.41 141.11 1344.23 145.439C1346.62 148.995 1349.12 152.242 1350.24 152.139C1350.34 152.088 1361.41 159.457 1348.38 165.539Z" fill="#FFB27D"/>
<path d="M1338.69 138.069C1338.27 143.841 1336.25 154.252 1328.16 158.117C1327.47 155.18 1325.87 151.211 1322.95 146.418L1338.69 138.069Z" fill="#ED975D"/>
<path d="M1321.99 153.015C1321.99 153.015 1343.75 144.718 1338.21 131.627C1332.68 118.588 1331.72 108.693 1317.57 113.434C1303.42 118.176 1302.89 124.257 1303.63 129.05C1304.38 133.843 1316.19 154.819 1321.99 153.015Z" fill="#FFB27D"/>
<path d="M1330.13 128.638C1340.18 127.246 1343.11 123.33 1343.11 123.33C1343.11 123.33 1333.85 120.753 1328.42 111.991C1328.42 111.991 1317.14 108.281 1308.74 114.465C1308.21 115.084 1307.89 115.857 1307.67 116.733C1305.76 116.114 1302.89 116.269 1301.18 121.526C1298.68 129.411 1307.57 138.069 1307.57 138.069C1309.75 137.502 1307.3 130.442 1306.93 126.679C1306.66 123.896 1308.21 120.392 1309.06 118.691C1310.12 120.031 1320.71 132.967 1333.69 133.482C1333.69 133.482 1326.83 131.163 1320.6 126.679C1323.74 128.174 1327.04 129.05 1330.13 128.638Z" fill="#2C3A64"/>
<path d="M1389.82 192.493C1389.66 191.875 1389.45 191.205 1389.24 190.535C1392.48 184.556 1394.08 179.145 1394.72 174.558C1396.21 164.92 1393.65 158.942 1393.65 158.942C1393.65 158.942 1378.54 151.16 1371.89 150.181C1371.84 150.181 1371.84 150.181 1371.79 150.181C1371.73 150.181 1371.63 150.181 1371.52 150.181C1364.76 149.305 1350.18 152.139 1350.18 152.139C1350.18 152.139 1353 159.406 1345.08 164.25C1337.15 169.095 1328.69 163.014 1328.69 163.014C1328.43 163.168 1328.16 163.374 1327.89 163.58C1327.89 163.58 1307.04 176.929 1305.12 179.969C1303.26 183.01 1295.23 198.111 1295.23 198.111C1295.23 198.111 1297.78 210.789 1325.98 211.871C1328.32 217.334 1330.07 222.643 1330.66 227.075C1332.89 244.288 1330.29 257.843 1332.89 267.893C1335.5 277.942 1382.59 272.222 1391.1 270.263C1399.61 268.305 1397.69 259.492 1398.33 250.937C1399.18 240.114 1392.59 201.976 1389.82 192.493Z" fill="#699DEE"/>
<path d="M1394.77 174.558C1394.08 179.145 1392.48 184.556 1389.23 190.586C1388.49 187.442 1385.46 175.846 1380.62 170.641C1380.62 170.641 1388.76 171.363 1394.77 174.558Z" fill="#4A82D3"/>
<path d="M1203.13 287.322C1203.13 287.322 1211.91 277.015 1213.77 275.829C1215.63 274.592 1223.93 272.479 1224.41 272.892C1224.89 273.304 1224.89 273.922 1223.88 274.799C1222.87 275.675 1218.93 277.891 1219.52 278.149C1220.1 278.406 1231.91 272.686 1233.62 274.592C1235.32 276.499 1232.66 284.436 1228.08 288.198C1223.51 291.961 1209.94 293.61 1209.09 294.125C1201.85 298.66 1203.13 287.322 1203.13 287.322Z" fill="#ED975D"/>
<path d="M1048.79 263.563C1048.79 263.563 1061.4 278.045 1077.41 271.964C1077.41 271.964 1080.87 263.873 1080.93 257.894C1080.93 257.173 1080.93 256.451 1080.93 255.781C1081.03 249.081 1081.24 245.319 1081.24 245.319C1080.5 245.01 1056.72 235.578 1056.77 236.351C1057.14 254.493 1048.79 263.563 1048.79 263.563Z" fill="#FFB27D"/>
<path d="M1059.11 240.681C1061.4 244.804 1069.27 252.844 1080.92 255.781C1081.03 249.081 1081.24 245.319 1081.24 245.319C1080.61 245.164 1058.42 239.495 1059.11 240.681Z" fill="#ED975D"/>
<path d="M1086.25 244.649C1086.25 244.649 1059.48 250.731 1055.81 234.548C1052.14 218.365 1046.24 208.212 1063.16 203.677C1080.07 199.09 1084.81 204.553 1087.36 209.707C1089.97 214.757 1093.11 242.639 1086.25 244.649Z" fill="#FFB27D"/>
<path d="M1056.72 238.928C1056.35 239.135 1050.6 240.887 1039.69 219.808C1037.99 216.51 1036.82 209.346 1040.81 203.058C1044.8 196.771 1058.95 191.771 1070.71 189.607C1082.47 187.442 1085.29 193.833 1088.05 200.275C1090.98 207.027 1099.33 212.593 1099.33 212.593C1089.23 218.056 1076.99 210.222 1072.79 211.51C1068.58 212.799 1067.04 219.241 1066.72 221.303C1066.4 223.364 1065.92 225.116 1060.6 223.261C1055.28 221.406 1058.21 230.579 1059.06 232.332C1059.06 232.383 1059.8 237.073 1056.72 238.928Z" fill="#A9453D"/>
<path d="M987.82 643.396H971.594C968.189 643.396 964.411 640.046 963.454 633.964C962.496 627.831 955.526 624.533 954.037 619.534C952.547 614.535 960.261 607.474 960.261 607.474L961.538 605.825L962.868 604.124L975.69 607.062C975.69 607.062 976.009 610.051 976.222 613.865C976.382 616.648 976.435 619.791 976.275 622.626C975.903 629.274 978.191 636.49 984.203 637.778C990.321 639.118 987.82 643.396 987.82 643.396Z" fill="#2C3A64"/>
<path d="M1100.61 643.55H1057.68C1057.25 643.447 1056.93 643.396 1056.77 643.293C1053.9 641.849 1054.8 630.924 1055.12 627.522C1055.18 626.904 1055.23 626.543 1055.23 626.543C1055.23 626.543 1070.34 614.483 1072.41 623.708C1072.47 624.017 1072.57 624.275 1072.63 624.533C1075.23 633.14 1086.99 637.057 1093.75 638.19C1098.91 639.067 1100.24 642.056 1100.61 643.55Z" fill="#2C3A64"/>
<path d="M1091.94 403.024C1091.94 403.024 1089.65 430.751 1086.94 464.045C1083.27 509.295 1078.85 564.904 1078.43 575.417C1077.68 593.713 1074.65 622.935 1074.65 622.935C1074.65 622.935 1067.47 629.893 1053.15 626.955C1053.15 626.955 1040.39 585.21 1036.71 540.99C1036.66 540.269 1036.61 539.547 1036.55 538.826C1033.15 493.833 1027.88 399.159 1027.88 399.159L1091.94 403.024Z" fill="#EE9849"/>
<path d="M1091.94 403.024C1091.94 403.024 1089.65 430.751 1086.94 464.045L1036.71 541.042C1036.66 540.32 1036.61 539.599 1036.55 538.877C1033.15 493.885 1027.88 399.21 1027.88 399.21L1091.94 403.024Z" fill="#E58638"/>
<path d="M1081.46 406.323C1081.46 406.323 1040.12 506.718 1012.93 553.875C985.745 601.032 977.286 614.225 977.286 614.225C977.286 614.225 961.698 608.144 960.314 604.021C960.314 604.021 970.689 512.954 988.884 490.741C999.152 478.218 1011.23 440.544 1011.81 427.401C1012.4 414.259 1015.49 388.181 1015.49 388.181L1081.46 406.323Z" fill="#EE9849"/>
<path d="M986.809 389.573C986.809 389.573 985.745 402.096 984.947 404.055C984.149 405.962 978.935 411.94 978.35 411.837C977.765 411.734 977.392 411.27 977.712 410.085C978.031 408.848 979.84 405.137 979.254 405.189C978.669 405.292 972.711 415.857 970.316 415.239C967.922 414.62 965.581 407.147 967.018 401.839C968.454 396.53 978.031 388.181 978.403 387.357C981.542 380.141 986.809 389.573 986.809 389.573Z" fill="#ED975D"/>
<path d="M982.393 392.768C986.968 394.211 987.713 393.85 987.713 393.85C987.713 393.85 1010.01 354.579 1012.24 350.971C1014.47 347.364 1059.54 306.906 1059.54 306.906L1047.99 265.109C1047.99 265.109 996.758 329.325 991.278 338.551C982.127 353.806 976.807 389.161 976.807 389.161C976.807 389.161 978.775 391.634 982.393 392.768Z" fill="#1E3D70"/>
<path d="M1100.66 323.347C1100.5 331.954 1099.97 341.591 1099.28 351.383C1099.23 351.95 1099.17 352.569 1099.17 353.136C1098.75 359.217 1098.27 365.299 1097.68 371.225C1097.47 373.596 1097.2 375.967 1096.99 378.286L1096.94 378.595C1096.94 379.471 1096.83 380.399 1096.73 381.275C1094.49 403.488 1092.1 421.062 1091.67 421.32C1091.14 421.681 1090.55 421.835 1089.92 421.732C1083.9 421.011 1065.92 422.299 1051.24 419.207C1038.84 416.682 1028.15 411.889 1016.82 405.395C1015.33 404.519 1011.87 402.251 1012.19 400.55C1012.45 398.695 1012.98 395.964 1013.62 392.562C1015.86 380.76 1019.69 360.403 1021.02 336.592C1021.28 332.16 1021.66 327.779 1022.14 323.45C1023.41 312.215 1025.43 301.598 1028.15 292.115C1033.2 274.541 1040.6 261.09 1049.91 255.833C1051.13 255.163 1057.67 259.183 1063.63 262.945C1069.17 266.398 1075.02 267.326 1080.66 266.862L1085.66 272.222C1091.72 279.025 1098.16 288.095 1099.92 300.98C1100.02 301.907 1100.18 302.938 1100.24 304.02C1100.66 309.277 1100.82 315.926 1100.66 323.347Z" fill="#2A4E96"/>
<path d="M1100.66 323.347C1100.5 331.954 1099.97 341.591 1099.28 351.383C1099.23 351.95 1099.17 352.569 1099.17 353.136C1064.8 332.315 1059.48 294.177 1059.48 294.177C1076.4 294.898 1089.81 298.66 1100.18 304.02C1100.66 309.277 1100.82 315.926 1100.66 323.347Z" fill="#1E3D70"/>
<path d="M1208.35 288.353C1206.59 283.715 1203.82 284.024 1203.82 284.024C1203.82 284.024 1152.7 296.341 1148.12 296.908C1143.54 297.424 1093.11 277.839 1093.11 277.839C1093.11 277.839 1073.26 269.233 1063.95 277.066C1055.87 283.921 1055.49 292.579 1057.41 299.897C1059.64 308.556 1067.25 314.998 1076.4 316.132C1096.99 318.657 1138.06 323.45 1146.63 322.265C1165.78 319.688 1209.2 295.414 1209.2 295.414C1209.2 295.414 1209.73 292.012 1208.35 288.353Z" fill="#2A4E96"/>
<path d="M1712.23 379.111C1712.23 379.111 1719.3 385.501 1717.92 390.037C1716.54 394.572 1710.15 397.561 1709.25 403.127C1708.34 408.693 1704.94 411.682 1701.8 411.682C1698.66 411.682 1686.96 411.682 1686.96 411.682C1686.96 411.682 1684.67 407.766 1690.2 406.632C1695.74 405.446 1697.81 398.953 1697.49 392.923C1697.12 386.893 1698.02 378.853 1698.02 378.853L1709.78 376.173L1712.23 379.111Z" fill="#2C3A64"/>
<path d="M1623.75 410.858C1623.01 411.219 1620.51 411.425 1617.05 411.631H1583.42C1583.53 410.652 1584.33 407.199 1589.81 406.374C1596.03 405.395 1606.78 401.89 1609.17 394.211C1609.28 393.954 1609.33 393.696 1609.39 393.438C1611.3 385.244 1625.13 395.964 1625.13 395.964C1625.13 395.964 1625.19 396.273 1625.24 396.84C1625.56 399.88 1626.41 409.621 1623.75 410.858Z" fill="#2C3A64"/>
<path d="M1591.46 191.05C1591.46 191.05 1593.59 216.458 1596.03 247.02C1599.38 288.559 1603.43 339.53 1603.85 349.219C1604.54 366.02 1607.31 392.82 1607.31 392.82C1607.31 392.82 1613.91 399.21 1627.05 396.53C1627.05 396.53 1638.75 358.238 1642.11 317.678C1642.16 317.008 1642.21 316.338 1642.27 315.668C1645.4 274.386 1650.25 187.494 1650.25 187.494L1591.46 191.05Z" fill="#35488B"/>
<path d="M1591.46 191.05C1591.46 191.05 1593.59 216.458 1596.03 247.02L1642.11 317.678C1642.16 317.008 1642.21 316.338 1642.27 315.668C1645.4 274.386 1650.25 187.494 1650.25 187.494L1591.46 191.05Z" fill="#2C3A64"/>
<path d="M1601.09 194.039C1601.09 194.039 1639.02 286.137 1663.92 329.428C1688.87 372.72 1696.64 384.78 1696.64 384.78C1696.64 384.78 1710.95 379.265 1712.23 375.452C1712.23 375.452 1702.7 291.909 1686 271.552C1676.58 260.059 1665.46 225.529 1664.98 213.417C1664.45 201.357 1661.63 177.444 1661.63 177.444L1601.09 194.039Z" fill="#35488B"/>
<path d="M1484.1 144.099C1484.1 144.099 1473.83 141.832 1472.07 141.935C1470.32 142.038 1464.3 144.511 1464.2 144.975C1464.09 145.439 1464.41 145.851 1465.47 145.903C1466.54 145.955 1469.94 145.542 1469.73 145.955C1469.52 146.367 1459.57 148.222 1459.46 150.181C1459.36 152.139 1464.78 155.695 1469.36 155.953C1473.93 156.211 1482.98 151.005 1483.78 150.954C1490.37 150.387 1484.1 144.099 1484.1 144.099Z" fill="#FFB27D"/>
<path d="M1479.68 146.625C1478.19 142.089 1478.56 141.368 1478.56 141.368C1478.56 141.368 1520.27 119.516 1524.05 117.3C1527.88 115.084 1570.98 70.6581 1570.98 70.6581L1615.13 82.4087C1615.13 82.4087 1546.82 132.812 1537.03 138.224C1520.86 147.191 1483.4 152.294 1483.4 152.294C1483.4 152.294 1480.85 150.232 1479.68 146.625Z" fill="#E58638"/>
<path d="M1584.38 49.0638C1584.38 49.0638 1568.9 75.4511 1553.79 78.9041C1553.79 78.9041 1554.43 70.0396 1558.1 64.0097C1556.61 62.309 1555.28 60.7113 1554.11 59.2683C1550.28 54.5268 1548.47 51.6407 1548.47 51.6407L1553.58 38.2925L1557.04 29.2218C1558.69 32.1595 1560.55 34.6848 1562.46 36.7979C1572.47 47.8269 1584.38 49.0638 1584.38 49.0638Z" fill="#FFB27D"/>
<path d="M1562.57 36.7979C1562.57 36.7979 1564.43 49.9915 1554.11 59.2683C1550.28 54.5268 1548.47 51.6407 1548.47 51.6407L1553.58 38.2925C1559.11 36.6432 1562.57 36.7979 1562.57 36.7979Z" fill="#ED975D"/>
<path d="M1544.43 53.5991C1544.43 53.5991 1567.57 44.8892 1561.72 31.0256C1555.87 17.162 1554.96 6.69987 1539.91 11.699C1524.9 16.6982 1524.26 23.0888 1525.06 28.1911C1525.86 33.2417 1538.26 55.506 1544.43 53.5991Z" fill="#FFB27D"/>
<path d="M1663.81 184.402C1654.5 197.389 1584.75 214.757 1585.61 205.738C1585.92 202.285 1586.35 196.255 1585.61 188.009C1585.45 186.102 1585.18 184.041 1584.86 181.876C1583.1 170.074 1578.9 154.871 1569.48 137.296C1568.79 135.956 1568.05 134.668 1567.3 133.328C1563.42 126.525 1560.12 119.31 1557.62 112.3C1552.78 98.7976 1550.86 85.8617 1553.26 77.358C1553.26 77.3064 1553.26 77.2549 1553.31 77.2549C1567.89 70.7096 1573.53 45.4046 1573.53 45.4046C1573.53 45.4046 1623.27 54.0629 1651.1 118.279C1651.15 118.227 1671.95 173.115 1663.81 184.402Z" fill="#EE9849"/>
<path d="M1585.61 188.009C1585.45 186.102 1585.18 184.041 1584.86 181.876C1583.11 170.074 1578.9 154.871 1569.49 137.296C1571.08 127.813 1573.32 119.98 1575.76 116.423C1585.66 102.044 1591.46 99.7768 1591.46 99.7768C1591.46 99.7768 1606.36 160.54 1585.61 188.009Z" fill="#E58638"/>
<path d="M1507.24 173.579C1507.24 173.579 1493.46 174.3 1491.33 175.022C1489.2 175.743 1482.5 180.949 1482.55 181.567C1482.61 182.185 1483.14 182.598 1484.47 182.289C1485.8 182.031 1489.95 180.279 1489.84 180.845C1489.74 181.412 1477.98 187.236 1478.51 189.71C1479.09 192.184 1487.23 194.812 1493.09 193.524C1498.94 192.235 1508.36 182.598 1509.31 182.289C1517.4 179.299 1507.24 173.579 1507.24 173.579Z" fill="#FFB27D"/>
<path d="M1504.63 178.629C1501.86 174.3 1503.89 172.342 1503.89 172.342C1503.89 172.342 1546.4 140.131 1549.69 136.832C1553.05 133.585 1568.47 81.7387 1568.47 81.7387C1568.47 81.7387 1573.79 60.7629 1586.24 58.4437C1597.04 56.4337 1604.55 61.5875 1609.39 67.6689C1615.19 74.8842 1615.77 84.8825 1610.93 92.7677C1600.08 110.497 1578.21 145.645 1571.83 151.624C1557.62 164.972 1510 183.68 1510 183.68C1510 183.68 1506.81 182.031 1504.63 178.629Z" fill="#EE9849"/>
<path d="M1565.02 5.25684C1565.18 4.94761 1565.65 4.63839 1566.77 4.27762C1566.77 4.27762 1565.71 3.91686 1564.43 4.17455C1563.79 2.62842 1562.2 0.0515376 1559.27 0C1559.27 0 1560.97 0.412301 1561.61 2.0615C1557.57 -0.412301 1550.01 -1.13383 1531.29 4.89607C1506.55 12.8844 1518.89 26.7996 1522.67 27.9334C1526.39 29.0672 1533.31 21.9035 1539.53 20.9243C1545.76 19.9451 1549.11 28.3457 1551.45 29.0157C1553.79 29.6857 1552.46 27.8303 1554.96 25.8719C1557.46 23.965 1558.84 28.4488 1558.79 31.5926C1558.74 34.7364 1563.58 37.7255 1563.58 37.7255C1563.58 37.7255 1563.58 37.7255 1566.4 32.6749C1569.22 27.6242 1568.47 9.37985 1565.76 6.08144C1565.49 5.82375 1565.28 5.51452 1565.02 5.25684Z" fill="#2B478B"/>
<path d="M1174.08 642.88V669.989L1107.85 642.88H1174.08Z" fill="#4271BC"/>
<path d="M1741.06 411.631H1521.97V690.398H1741.06V411.631Z" fill="#4A75CB"/>
<path d="M1673.5 411.631H1454.41V690.398H1673.5V411.631Z" fill="#699DEE"/>
<path d="M1741.06 411.631V453.325L1673.55 411.631H1741.06Z" fill="#4271BC"/>
<path d="M484.845 637.644C439.351 633.627 378.659 672.452 354 692.367V725H896V643.5C795.35 597.814 691.177 657.223 629.781 666.26C568.384 675.297 541.712 642.664 484.845 637.644Z" fill="#298358"/>
<path d="M130.845 647.021C85.3512 643.436 24.6592 678.093 0 695.87V725H542V652.249C441.35 611.466 337.177 664.499 275.781 672.566C214.384 680.633 187.712 651.502 130.845 647.021Z" fill="#298358"/>
<path d="M767.616 685.863C814.753 685.863 852.953 648.859 852.953 603.196H682.332C682.332 648.859 720.532 685.863 767.616 685.863Z" fill="#F1A34F"/>
<path d="M896 686H1837V725H896V686Z" fill="#298358"/>
</svg>
