<svg width="1739" height="730" viewBox="0 0 1739 730" fill="none" xmlns="http://www.w3.org/2000/svg">
<path d="M130.845 652.021C85.3512 648.436 24.6592 683.093 0 700.87V730H542V657.249C441.35 616.466 337.177 669.499 275.781 677.566C214.384 685.633 187.712 656.502 130.845 652.021Z" fill="#298358"/>
<path d="M491.845 642.226C446.351 638.21 385.659 677.035 361 696.949V729.582H903V648.082C802.35 602.396 698.177 661.806 636.781 670.843C575.384 679.88 548.712 647.246 491.845 642.226Z" fill="#298358"/>
<path d="M1723.1 673.304C1711.32 663.383 1687.26 670.065 1669.5 677.262C1666.87 672.944 1663.61 668.523 1659.73 664.206C1697.97 635.832 1750.81 575.28 1722.78 570.192C1698.46 565.72 1665.62 620.206 1648.04 653.36C1629.83 639.224 1601.89 628.841 1559.23 632.439C1448.56 641.794 1362.07 559.551 1298.35 587C1247.65 608.794 1201.24 621.028 1156.44 616.864C1158.36 579.187 1158.81 505.168 1133.1 497.509C1107.04 489.696 1132.61 573.738 1146.8 615.682C1143.45 615.168 1140.15 614.603 1136.8 613.935C1127.61 593.014 1112.44 565.668 1095.75 564.743C1080.04 563.869 1099.41 588.491 1118.46 609.308C1063.71 596.047 998.733 647.346 997.662 708C997.662 708 1206.04 708 1339.56 708C1473.08 708 1681.46 708 1681.46 708C1681.46 708 1680.26 699.159 1674.9 687.491C1701.36 686.822 1735.86 684.098 1723.1 673.304Z" fill="#298358"/>
<path d="M1171.74 643.396H956.912V690.398H1171.74V643.396Z" fill="#4A75CB"/>
<path d="M1105.51 643.396H890.676V690.398H1105.51V643.396Z" fill="#699DEE"/>
<path d="M1256.3 690.4H1416.29V473.788H1256.3V690.4Z" fill="#D86713"/>
<path d="M1206.97 690.4H1366.95V473.788H1206.97V690.4Z" fill="#F1A34F"/>
<path d="M1366.95 473.785L1416.26 506.305V473.785H1366.95Z" fill="#C95C12"/>
<path d="M873.065 521.767C873.065 521.767 843.165 543.309 837.312 542.021C831.46 540.733 859.179 518.778 859.179 518.778C848.751 513.933 816.351 516.974 816.351 516.974C816.351 516.974 805.55 550.679 800.23 548.051C794.91 545.371 811.35 518.675 811.35 518.675C799.751 518.005 785.493 526.354 785.493 526.354C766.021 541.248 786.77 564.749 786.77 564.749C786.77 564.749 782.78 576.345 770.437 586.91C770.437 586.91 752.88 599.486 751.656 622.007L754.848 622.265C754.848 622.265 759.903 601.289 769.107 591.394C769.479 591.033 769.958 590.518 770.65 589.9C772.139 588.56 773.203 587.529 773.895 586.807C778.47 582.53 784.801 577.118 787.834 576.603C787.834 576.603 787.674 576.036 787.728 575.108C787.781 575.572 787.834 576.087 787.834 576.603C788.898 588.456 812.626 598.816 827.257 600.98C841.888 603.093 837.366 597.269 832.311 588.663C827.257 580.056 811.35 576.19 807.679 572.171C804.061 568.202 811.562 568.202 820.394 572.068C829.226 575.984 830.396 586.343 844.548 592.889C858.7 599.434 879.928 576.706 879.928 576.706C868.649 576.139 852.582 564.285 853.167 560.678C853.752 557.07 880.46 566.914 885.035 567.429C889.611 567.893 899.985 562.378 901.581 544.598C903.23 526.714 873.065 521.767 873.065 521.767Z" fill="#82B378"/>
<path d="M714.202 535.167C714.202 535.167 747.241 517.232 731.813 492.906C731.813 492.906 719.469 477.96 706.275 474.146C706.275 474.146 713.351 510.429 706.275 511.305C699.199 512.181 701.434 470.332 701.434 470.332C701.434 470.332 666.639 454.098 652.966 455.386C652.966 455.386 674.566 490.793 667.491 489.968C660.415 489.092 636.207 453.273 636.207 453.273C636.207 453.273 600.508 446.883 594.816 467.343C589.07 487.855 598.327 498.06 603.647 499.348C608.914 500.636 642.858 500.224 642.006 504.45C641.102 508.728 618.225 515.531 605.456 511.717C605.456 511.717 619.555 545.423 638.069 543.722C656.584 542.021 662.277 530.941 673.768 530.064C685.26 529.188 693.613 532.177 687.867 535.167C682.121 538.156 662.756 536.146 653.498 543.773C644.241 551.401 636.739 556.091 653.924 559.492C671.108 562.894 701.966 560.781 708.137 547.948C714.202 535.167 714.202 535.167 714.202 535.167Z" fill="#A8D29F"/>
<path d="M722.981 566.296C713.724 549.649 714.149 535.115 714.149 535.115C703.615 502.698 611.096 473.682 611.096 473.682C728.727 519.757 708.031 547.948 708.031 547.948C711.223 549.752 715.958 558.307 719.257 564.852C719.735 565.986 720.48 567.532 721.598 569.594C722.023 570.522 722.396 571.295 722.662 571.862C728.727 586.55 725.535 611.906 725.535 611.906L729.206 612.885C737.292 587.271 722.981 566.296 722.981 566.296Z" fill="#82B378"/>
<path d="M766.766 510.428C766.766 510.428 723.193 486.773 743.517 454.716C743.517 454.716 759.797 435.029 777.194 429.978C777.194 429.978 767.884 477.805 777.194 478.939C786.505 480.073 783.578 424.928 783.578 424.928C783.578 424.928 829.439 403.539 847.475 405.24C847.475 405.24 819.011 451.933 828.322 450.799C837.632 449.666 869.554 402.406 869.554 402.406C869.554 402.406 916.585 393.953 924.14 420.959C931.695 447.965 919.511 461.468 912.542 463.168C905.572 464.869 860.829 464.302 861.999 469.92C863.17 475.537 893.389 484.557 910.201 479.506C910.201 479.506 891.633 523.931 867.213 521.715C842.793 519.448 835.291 504.811 820.182 503.729C805.072 502.595 794.059 506.563 801.614 510.48C809.169 514.397 834.706 511.768 846.943 521.818C859.126 531.868 869.022 538.053 846.357 542.536C823.693 547.02 783.046 544.237 774.906 527.333C766.766 510.428 766.766 510.428 766.766 510.428Z" fill="#A8D29F"/>
<path d="M902.646 429.411C902.646 429.411 780.653 467.652 766.713 510.429C766.713 510.429 767.299 529.549 755.115 551.504C755.115 551.504 736.282 579.18 747.028 612.834L751.87 611.597C751.87 611.597 747.614 578.2 755.647 558.822C755.966 558.101 756.445 557.07 757.031 555.833C758.467 553.05 759.478 551.04 760.063 549.546C764.426 540.887 770.704 529.652 774.853 527.281C774.907 527.281 747.614 490.174 902.646 429.411Z" fill="#82B378"/>
<path d="M1509.69 167.961C1507.24 167.6 1499.74 174.249 1499.74 174.249C1483.83 176.053 1460.58 180.124 1452.18 181.67C1446.22 182.752 1430.26 177.496 1414.67 171.466C1396.1 164.25 1378.07 155.953 1378.07 155.953C1367.8 155.437 1356.09 173.63 1376.95 185.226C1380.14 186.978 1392.11 190.019 1405.89 192.751C1424.94 196.564 1447.39 199.863 1455.05 198.678C1463.94 197.338 1489.1 188.422 1504.05 181.619C1504.05 181.619 1504.05 181.619 1504.1 181.619C1504.16 181.619 1504.21 181.567 1504.26 181.567C1505.17 181.155 1508.84 179.557 1511.29 179.712C1514.11 179.866 1520.33 174.919 1520.54 173.579C1520.76 172.187 1512.19 168.322 1509.69 167.961Z" fill="#ED975D"/>
<path d="M1490.27 397.149L1481.49 398.85C1481.49 398.85 1441.38 355.197 1435.2 336.85C1431.91 327.058 1410.73 322.78 1388.6 317.265C1369.34 312.421 1349.39 306.649 1339.81 295.31C1319.33 270.933 1352.69 241.041 1352.69 241.041C1352.69 241.041 1388.17 261.502 1418.82 282.581C1440.21 297.32 1459.25 312.421 1462.13 321.079C1469.09 342.158 1483.88 382.203 1490.27 397.149Z" fill="#2B478B"/>
<path d="M1478.51 411.528H1483.46C1485.11 411.27 1486.33 410.806 1488.04 410.6C1490.59 410.291 1491.81 411.27 1492.03 411.528C1492.08 411.579 1492.08 411.579 1492.08 411.579H1513.04C1513.57 410.858 1513.04 409.157 1512.56 407.92C1512.24 407.096 1511.5 406.426 1510.59 406.168C1508.36 405.549 1504 404.983 1500.01 401.478C1497.77 399.52 1489.1 394.211 1489.1 394.211H1489.05C1488.83 394.211 1487.93 394.469 1484.05 397.716C1482.02 399.365 1478.57 395.397 1478.57 395.397C1478.57 395.397 1477.93 395.912 1477.45 396.891C1477.08 397.664 1476.76 398.695 1477.02 399.983C1477.34 401.787 1476.33 405.189 1475.53 407.508C1475.05 408.899 1474.63 409.879 1474.63 409.879C1474.63 409.879 1474.31 411.012 1478.51 411.528Z" fill="#233862"/>
<path d="M1418.82 282.581L1388.6 317.265C1369.34 312.421 1349.39 306.649 1339.81 295.31C1319.33 270.933 1352.69 241.041 1352.69 241.041C1352.69 241.041 1388.23 261.45 1418.82 282.581Z" fill="#1E3D70"/>
<path d="M1391.37 264.439C1391.37 264.439 1388.92 271.861 1384.98 283.096C1379.98 297.269 1372.48 317.42 1364.39 336.128C1362.64 340.251 1360.77 344.271 1358.97 348.188C1352.21 362.567 1345.35 374.936 1339.23 381.172C1328.32 392.459 1301.77 464.869 1301.77 464.869L1295.18 463.117C1295.18 463.117 1285.97 401.272 1318.64 366.072C1319.01 365.711 1319.28 365.247 1319.28 364.783C1319.7 359.578 1321.25 336.231 1324.65 312.576C1325.5 306.752 1326.41 300.98 1327.47 295.362C1327.52 295.001 1327.63 294.64 1327.68 294.28C1332.63 268.511 1337.42 257.07 1343.54 251.297L1388.71 263.769L1391.37 264.439Z" fill="#2B478B"/>
<path d="M1294.43 473.734H1299.38C1301.03 473.476 1302.25 473.012 1303.95 472.806C1306.51 472.497 1307.73 473.476 1307.94 473.734C1308 473.785 1308 473.785 1308 473.785H1328.96C1329.49 473.064 1328.96 471.363 1328.48 470.126C1328.16 469.301 1327.42 468.631 1326.51 468.374C1324.28 467.755 1319.91 467.188 1315.92 463.684C1313.69 461.725 1305.02 456.417 1305.02 456.417H1304.96C1304.75 456.417 1303.85 456.675 1299.96 459.922C1297.94 461.571 1294.48 457.602 1294.48 457.602C1294.48 457.602 1293.85 458.118 1293.37 459.097C1292.99 459.87 1292.67 460.901 1292.94 462.189C1293.26 463.993 1292.25 467.395 1291.45 469.714C1290.97 471.105 1290.55 472.084 1290.55 472.084C1290.55 472.084 1290.23 473.218 1294.43 473.734Z" fill="#233862"/>
<path d="M1304.11 180.279C1304.11 180.279 1296.56 198.162 1287.83 215.582C1280.49 230.219 1272.35 244.546 1267.19 247.587C1259.9 251.916 1239.84 264.027 1226.86 273.098C1226.86 273.098 1216.7 273.046 1215.16 274.902C1213.56 276.809 1209.95 285.261 1211.01 286.085C1212.07 286.961 1220.16 286.549 1222.08 284.591C1223.78 282.89 1227.61 281.653 1228.51 281.395C1228.57 281.395 1228.62 281.344 1228.67 281.344H1228.73C1244.53 276.654 1269.32 266.81 1276.82 262.017C1283.26 257.894 1297.62 240.784 1309.01 225.58C1317.31 214.551 1324.06 204.501 1325.18 201.151C1332.68 179.042 1311.4 173.218 1304.11 180.279Z" fill="#FFB27D"/>
<path d="M1343.64 110.084C1342.74 108.796 1341.83 107.714 1340.93 106.683C1342.05 106.683 1343.27 106.58 1344.28 106.219C1346.94 105.137 1348.17 96.9938 1347.74 94.5715C1347.37 92.1492 1343.64 85.1401 1339.12 84.4701C1334.6 83.7486 1329.86 88.6447 1329.86 88.6447C1330.72 85.1401 1338.38 83.0786 1338.38 83.0786C1322.52 85.9132 1323.37 96.1176 1323.48 97.0968C1309.01 92.0977 1300.5 118.536 1300.5 118.536L1338 139.976C1338 139.976 1338.11 134.152 1341.67 134.513C1347.26 135.08 1351.94 121.783 1343.64 110.084Z" fill="#2C3A64"/>
<path d="M1346.04 165.539C1337.42 169.456 1325.98 163.787 1326.03 163.735C1326.78 163.013 1326.51 160.9 1325.82 158.066C1325.13 155.128 1323.53 151.16 1320.61 146.367C1319.97 145.336 1319.38 144.357 1318.64 143.275L1319.65 142.914L1336.36 136.42C1336.36 136.42 1339.07 141.11 1341.89 145.439C1344.28 148.995 1346.78 152.242 1347.9 152.139C1348.01 152.087 1359.07 159.457 1346.04 165.539Z" fill="#FFB27D"/>
<path d="M1336.36 138.069C1335.93 143.841 1333.91 154.252 1325.82 158.117C1325.13 155.18 1323.53 151.211 1320.61 146.418L1336.36 138.069Z" fill="#ED975D"/>
<path d="M1319.65 153.015C1319.65 153.015 1341.41 144.718 1335.88 131.627C1330.34 118.588 1329.39 108.693 1315.23 113.434C1301.08 118.176 1300.55 124.257 1301.29 129.05C1302.04 133.843 1313.85 154.819 1319.65 153.015Z" fill="#FFB27D"/>
<path d="M1327.79 128.638C1337.84 127.246 1340.77 123.329 1340.77 123.329C1340.77 123.329 1331.51 120.753 1326.09 111.991C1326.09 111.991 1314.81 108.281 1306.4 114.465C1305.87 115.083 1305.55 115.857 1305.34 116.733C1303.42 116.114 1300.55 116.269 1298.85 121.526C1296.35 129.411 1305.23 138.069 1305.23 138.069C1307.41 137.502 1304.96 130.442 1304.59 126.679C1304.33 123.896 1305.87 120.392 1306.72 118.691C1307.78 120.031 1318.37 132.967 1331.35 133.482C1331.35 133.482 1324.49 131.163 1318.26 126.679C1321.4 128.174 1324.7 129.05 1327.79 128.638Z" fill="#2C3A64"/>
<path d="M1387.48 192.493C1387.32 191.875 1387.11 191.205 1386.9 190.535C1390.14 184.556 1391.74 179.145 1392.38 174.558C1393.87 164.92 1391.31 158.942 1391.31 158.942C1391.31 158.942 1376.2 151.16 1369.55 150.181C1369.5 150.181 1369.5 150.181 1369.45 150.181C1369.39 150.181 1369.29 150.181 1369.18 150.181C1362.42 149.305 1347.85 152.139 1347.85 152.139C1347.85 152.139 1350.67 159.406 1342.74 164.25C1334.81 169.095 1326.35 163.014 1326.35 163.014C1326.09 163.168 1325.82 163.374 1325.56 163.58C1325.56 163.58 1304.7 176.929 1302.78 179.969C1300.92 183.01 1292.89 198.111 1292.89 198.111C1292.89 198.111 1295.44 210.789 1323.64 211.871C1325.98 217.334 1327.74 222.643 1328.32 227.075C1330.56 244.288 1327.95 257.843 1330.56 267.893C1333.16 277.942 1380.25 272.222 1388.76 270.263C1397.27 268.305 1395.36 259.492 1396 250.937C1396.85 240.114 1390.25 201.976 1387.48 192.493Z" fill="#699DEE"/>
<path d="M1392.43 174.558C1391.74 179.145 1390.14 184.556 1386.9 190.586C1386.15 187.442 1383.12 175.846 1378.28 170.641C1378.28 170.641 1386.42 171.363 1392.43 174.558Z" fill="#4A82D3"/>
<path d="M1200.79 287.322C1200.79 287.322 1209.57 277.015 1211.43 275.829C1213.3 274.592 1221.6 272.479 1222.07 272.892C1222.55 273.304 1222.55 273.922 1221.54 274.799C1220.53 275.675 1216.6 277.891 1217.18 278.148C1217.77 278.406 1229.58 272.685 1231.28 274.592C1232.98 276.499 1230.32 284.436 1225.75 288.198C1221.17 291.961 1207.6 293.61 1206.75 294.125C1199.52 298.66 1200.79 287.322 1200.79 287.322Z" fill="#ED975D"/>
<path d="M1046.45 263.563C1046.45 263.563 1059.06 278.045 1075.08 271.964C1075.08 271.964 1078.53 263.873 1078.59 257.894C1078.59 257.173 1078.59 256.451 1078.59 255.781C1078.69 249.081 1078.91 245.319 1078.91 245.319C1078.16 245.01 1054.38 235.578 1054.43 236.351C1054.81 254.493 1046.45 263.563 1046.45 263.563Z" fill="#FFB27D"/>
<path d="M1056.77 240.681C1059.06 244.804 1066.94 252.843 1078.59 255.781C1078.69 249.081 1078.91 245.319 1078.91 245.319C1078.27 245.164 1056.08 239.495 1056.77 240.681Z" fill="#ED975D"/>
<path d="M1083.91 244.649C1083.91 244.649 1057.15 250.73 1053.48 234.548C1049.8 218.365 1043.9 208.212 1060.82 203.677C1077.74 199.09 1082.47 204.553 1085.02 209.706C1087.63 214.757 1090.77 242.639 1083.91 244.649Z" fill="#FFB27D"/>
<path d="M1054.38 238.928C1054.01 239.134 1048.26 240.887 1037.36 219.808C1035.65 216.509 1034.48 209.346 1038.47 203.058C1042.46 196.771 1056.61 191.771 1068.37 189.607C1080.13 187.442 1082.95 193.833 1085.72 200.275C1088.64 207.027 1097 212.593 1097 212.593C1086.89 218.056 1074.65 210.222 1070.45 211.51C1066.24 212.799 1064.7 219.241 1064.38 221.302C1064.06 223.364 1063.58 225.116 1058.26 223.261C1052.94 221.406 1055.87 230.579 1056.72 232.332C1056.72 232.383 1057.47 237.073 1054.38 238.928Z" fill="#A9453D"/>
<path d="M985.482 643.395H969.256C965.851 643.395 962.073 640.046 961.116 633.964C960.158 627.831 953.188 624.533 951.699 619.534C950.209 614.534 957.923 607.474 957.923 607.474L959.2 605.825L960.53 604.124L973.352 607.061C973.352 607.061 973.671 610.051 973.884 613.864C974.044 616.647 974.097 619.791 973.937 622.626C973.565 629.274 975.853 636.489 981.865 637.778C987.983 639.118 985.482 643.395 985.482 643.395Z" fill="#2C3A64"/>
<path d="M1098.27 643.55H1055.34C1054.91 643.447 1054.59 643.396 1054.43 643.293C1051.56 641.849 1052.47 630.924 1052.78 627.522C1052.84 626.904 1052.89 626.543 1052.89 626.543C1052.89 626.543 1068 614.483 1070.08 623.708C1070.13 624.017 1070.23 624.275 1070.29 624.533C1072.89 633.14 1084.65 637.057 1091.41 638.19C1096.57 639.067 1097.9 642.056 1098.27 643.55Z" fill="#2C3A64"/>
<path d="M1089.6 403.024C1089.6 403.024 1087.31 430.751 1084.6 464.045C1080.93 509.295 1076.51 564.904 1076.09 575.417C1075.34 593.713 1072.31 622.935 1072.31 622.935C1072.31 622.935 1065.13 629.893 1050.82 626.955C1050.82 626.955 1038.05 585.21 1034.38 540.99C1034.32 540.269 1034.27 539.547 1034.22 538.826C1030.81 493.833 1025.54 399.159 1025.54 399.159L1089.6 403.024Z" fill="#EE9849"/>
<path d="M1089.6 403.024C1089.6 403.024 1087.31 430.751 1084.6 464.045L1034.38 541.042C1034.32 540.32 1034.27 539.599 1034.22 538.877C1030.81 493.885 1025.54 399.21 1025.54 399.21L1089.6 403.024Z" fill="#E58638"/>
<path d="M1079.12 406.323C1079.12 406.323 1037.78 506.718 1010.59 553.875C983.407 601.032 974.948 614.225 974.948 614.225C974.948 614.225 959.36 608.144 957.977 604.021C957.977 604.021 968.351 512.954 986.546 490.741C996.814 478.217 1008.89 440.543 1009.48 427.401C1010.06 414.259 1013.15 388.181 1013.15 388.181L1079.12 406.323Z" fill="#EE9849"/>
<path d="M984.471 389.573C984.471 389.573 983.407 402.097 982.609 404.055C981.811 405.962 976.597 411.94 976.012 411.837C975.427 411.734 975.055 411.27 975.374 410.085C975.693 408.848 977.502 405.137 976.917 405.189C976.331 405.292 970.373 415.857 967.979 415.239C965.584 414.62 963.244 407.147 964.68 401.839C966.116 396.53 975.693 388.181 976.065 387.357C979.204 380.141 984.471 389.573 984.471 389.573Z" fill="#ED975D"/>
<path d="M980.055 392.768C984.63 394.211 985.375 393.85 985.375 393.85C985.375 393.85 1007.67 354.579 1009.9 350.971C1012.14 347.364 1057.2 306.906 1057.2 306.906L1045.65 265.109C1045.65 265.109 994.42 329.325 988.94 338.551C979.789 353.806 974.469 389.161 974.469 389.161C974.469 389.161 976.437 391.634 980.055 392.768Z" fill="#1E3D70"/>
<path d="M1098.32 323.347C1098.17 331.954 1097.63 341.591 1096.94 351.383C1096.89 351.95 1096.84 352.569 1096.84 353.136C1096.41 359.217 1095.93 365.299 1095.35 371.225C1095.13 373.596 1094.87 375.967 1094.65 378.286L1094.6 378.595C1094.6 379.471 1094.49 380.399 1094.39 381.275C1092.15 403.488 1089.76 421.062 1089.33 421.32C1088.8 421.681 1088.22 421.835 1087.58 421.732C1081.57 421.011 1063.58 422.299 1048.9 419.207C1036.5 416.682 1025.81 411.889 1014.48 405.395C1012.99 404.519 1009.53 402.251 1009.85 400.55C1010.11 398.695 1010.65 395.963 1011.29 392.562C1013.52 380.76 1017.35 360.402 1018.68 336.592C1018.95 332.16 1019.32 327.779 1019.8 323.45C1021.07 312.215 1023.1 301.598 1025.81 292.115C1030.86 274.541 1038.26 261.089 1047.57 255.833C1048.79 255.163 1055.34 259.183 1061.3 262.945C1066.83 266.398 1072.68 267.325 1078.32 266.862L1083.32 272.222C1089.39 279.025 1095.82 288.095 1097.58 300.98C1097.69 301.907 1097.85 302.938 1097.9 304.02C1098.32 309.277 1098.48 315.925 1098.32 323.347Z" fill="#2A4E96"/>
<path d="M1098.33 323.347C1098.17 331.954 1097.63 341.591 1096.94 351.383C1096.89 351.95 1096.84 352.569 1096.84 353.136C1062.47 332.314 1057.15 294.177 1057.15 294.177C1074.06 294.898 1087.47 298.66 1097.85 304.02C1098.33 309.277 1098.48 315.926 1098.33 323.347Z" fill="#1E3D70"/>
<path d="M1206.01 288.353C1204.25 283.714 1201.49 284.024 1201.49 284.024C1201.49 284.024 1150.36 296.341 1145.78 296.908C1141.21 297.423 1090.77 277.839 1090.77 277.839C1090.77 277.839 1070.93 269.232 1061.62 277.066C1053.53 283.921 1053.16 292.579 1055.07 299.897C1057.31 308.556 1064.91 314.998 1074.06 316.132C1094.65 318.657 1135.73 323.45 1144.29 322.265C1163.45 319.688 1206.86 295.414 1206.86 295.414C1206.86 295.414 1207.39 292.012 1206.01 288.353Z" fill="#2A4E96"/>
<path d="M1709.89 379.111C1709.89 379.111 1716.97 385.501 1715.58 390.037C1714.2 394.572 1707.82 397.561 1706.91 403.127C1706.01 408.693 1702.6 411.682 1699.46 411.682C1696.32 411.682 1684.62 411.682 1684.62 411.682C1684.62 411.682 1682.33 407.766 1687.86 406.632C1693.4 405.446 1695.47 398.953 1695.15 392.923C1694.78 386.893 1695.69 378.853 1695.69 378.853L1707.44 376.173L1709.89 379.111Z" fill="#2C3A64"/>
<path d="M1621.41 410.858C1620.67 411.219 1618.17 411.425 1614.71 411.631H1581.09C1581.19 410.652 1581.99 407.199 1587.47 406.374C1593.69 405.395 1604.44 401.89 1606.84 394.211C1606.94 393.954 1607 393.696 1607.05 393.438C1608.96 385.244 1622.8 395.964 1622.8 395.964C1622.8 395.964 1622.85 396.273 1622.9 396.84C1623.22 399.88 1624.07 409.621 1621.41 410.858Z" fill="#2C3A64"/>
<path d="M1589.12 191.05C1589.12 191.05 1591.25 216.458 1593.69 247.02C1597.05 288.559 1601.09 339.53 1601.52 349.219C1602.21 366.02 1604.97 392.82 1604.97 392.82C1604.97 392.82 1611.57 399.21 1624.71 396.53C1624.71 396.53 1636.42 358.238 1639.77 317.678C1639.82 317.008 1639.87 316.338 1639.93 315.668C1643.07 274.386 1647.91 187.494 1647.91 187.494L1589.12 191.05Z" fill="#35488B"/>
<path d="M1589.12 191.05C1589.12 191.05 1591.25 216.458 1593.69 247.02L1639.77 317.678C1639.82 317.008 1639.87 316.338 1639.93 315.668C1643.07 274.386 1647.91 187.494 1647.91 187.494L1589.12 191.05Z" fill="#2C3A64"/>
<path d="M1598.75 194.039C1598.75 194.039 1636.68 286.137 1661.58 329.429C1686.53 372.72 1694.3 384.78 1694.3 384.78C1694.3 384.78 1708.61 379.265 1709.89 375.452C1709.89 375.452 1700.37 291.909 1683.66 271.552C1674.24 260.059 1663.13 225.529 1662.65 213.417C1662.11 201.358 1659.29 177.444 1659.29 177.444L1598.75 194.039Z" fill="#35488B"/>
<path d="M1481.76 144.099C1481.76 144.099 1471.49 141.831 1469.73 141.935C1467.98 142.038 1461.97 144.511 1461.86 144.975C1461.75 145.439 1462.07 145.851 1463.14 145.903C1464.2 145.955 1467.61 145.542 1467.39 145.955C1467.18 146.367 1457.23 148.222 1457.12 150.181C1457.02 152.139 1462.44 155.695 1467.02 155.953C1471.6 156.21 1480.64 151.005 1481.44 150.954C1488.04 150.387 1481.76 144.099 1481.76 144.099Z" fill="#FFB27D"/>
<path d="M1477.34 146.625C1475.85 142.089 1476.22 141.368 1476.22 141.368C1476.22 141.368 1517.94 119.516 1521.71 117.3C1525.54 115.084 1568.64 70.6581 1568.64 70.6581L1612.8 82.4087C1612.8 82.4087 1544.48 132.812 1534.69 138.224C1518.52 147.191 1481.07 152.294 1481.07 152.294C1481.07 152.294 1478.51 150.232 1477.34 146.625Z" fill="#E58638"/>
<path d="M1582.04 49.0638C1582.04 49.0638 1566.56 75.4511 1551.45 78.9041C1551.45 78.9041 1552.09 70.0396 1555.76 64.0097C1554.27 62.309 1552.94 60.7113 1551.77 59.2682C1547.94 54.5268 1546.13 51.6407 1546.13 51.6407L1551.24 38.2924L1554.7 29.2218C1556.35 32.1594 1558.21 34.6848 1560.13 36.7978C1570.13 47.8269 1582.04 49.0638 1582.04 49.0638Z" fill="#FFB27D"/>
<path d="M1560.23 36.7978C1560.23 36.7978 1562.09 49.9914 1551.77 59.2682C1547.94 54.5267 1546.13 51.6406 1546.13 51.6406L1551.24 38.2924C1556.77 36.6432 1560.23 36.7978 1560.23 36.7978Z" fill="#ED975D"/>
<path d="M1542.09 53.5992C1542.09 53.5992 1565.23 44.8893 1559.38 31.0257C1553.53 17.1621 1552.62 6.69993 1537.57 11.6991C1522.56 16.6982 1521.93 23.0889 1522.72 28.1911C1523.52 33.2418 1535.92 55.5061 1542.09 53.5992Z" fill="#FFB27D"/>
<path d="M1661.48 184.402C1652.16 197.389 1582.42 214.757 1583.27 205.738C1583.59 202.285 1584.01 196.255 1583.27 188.009C1583.11 186.102 1582.84 184.041 1582.52 181.876C1580.77 170.074 1576.56 154.871 1567.15 137.296C1566.46 135.956 1565.71 134.668 1564.97 133.328C1561.08 126.525 1557.78 119.31 1555.28 112.3C1550.44 98.7976 1548.53 85.8617 1550.92 77.358C1550.92 77.3065 1550.92 77.2549 1550.97 77.2549C1565.55 70.7096 1571.19 45.4047 1571.19 45.4047C1571.19 45.4047 1620.93 54.063 1648.76 118.279C1648.81 118.227 1669.62 173.115 1661.48 184.402Z" fill="#EE9849"/>
<path d="M1583.27 188.009C1583.11 186.102 1582.84 184.041 1582.52 181.876C1580.77 170.074 1576.57 154.871 1567.15 137.296C1568.74 127.813 1570.98 119.98 1573.43 116.423C1583.32 102.045 1589.12 99.7769 1589.12 99.7769C1589.12 99.7769 1604.02 160.54 1583.27 188.009Z" fill="#E58638"/>
<path d="M1504.9 173.579C1504.9 173.579 1491.12 174.3 1488.99 175.022C1486.87 175.743 1480.16 180.949 1480.22 181.567C1480.27 182.186 1480.8 182.598 1482.13 182.289C1483.46 182.031 1487.61 180.279 1487.5 180.846C1487.4 181.412 1475.64 187.236 1476.17 189.71C1476.76 192.184 1484.9 194.812 1490.75 193.524C1496.6 192.235 1506.02 182.598 1506.98 182.289C1515.06 179.299 1504.9 173.579 1504.9 173.579Z" fill="#FFB27D"/>
<path d="M1502.29 178.629C1499.53 174.3 1501.55 172.342 1501.55 172.342C1501.55 172.342 1544.06 140.131 1547.36 136.832C1550.71 133.586 1566.14 81.7387 1566.14 81.7387C1566.14 81.7387 1571.46 60.7629 1583.91 58.4437C1594.71 56.4337 1602.21 61.5875 1607.05 67.6689C1612.85 74.8842 1613.43 84.8825 1608.59 92.7677C1597.74 110.497 1575.87 145.645 1569.49 151.624C1555.28 164.972 1507.67 183.68 1507.67 183.68C1507.67 183.68 1504.47 182.031 1502.29 178.629Z" fill="#EE9849"/>
<path d="M1562.68 5.25684C1562.84 4.94761 1563.32 4.63839 1564.43 4.27762C1564.43 4.27762 1563.37 3.91686 1562.09 4.17455C1561.45 2.62842 1559.86 0.0515376 1556.93 0C1556.93 0 1558.63 0.412301 1559.27 2.0615C1555.23 -0.412301 1547.67 -1.13383 1528.95 4.89607C1504.21 12.8844 1516.55 26.7996 1520.33 27.9334C1524.05 29.0672 1530.97 21.9035 1537.19 20.9243C1543.42 19.9451 1546.77 28.3457 1549.11 29.0157C1551.45 29.6857 1550.12 27.8303 1552.62 25.8719C1555.12 23.965 1556.51 28.4488 1556.45 31.5926C1556.4 34.7364 1561.24 37.7255 1561.24 37.7255C1561.24 37.7255 1561.24 37.7255 1564.06 32.6749C1566.88 27.6242 1566.14 9.37985 1563.42 6.08144C1563.16 5.82375 1562.94 5.51452 1562.68 5.25684Z" fill="#2B478B"/>
<path d="M1171.75 642.88V669.989L1105.51 642.88H1171.75Z" fill="#4271BC"/>
<path d="M1738.73 411.631H1519.64V690.398H1738.73V411.631Z" fill="#4A75CB"/>
<path d="M1671.16 411.631H1452.07V690.398H1671.16V411.631Z" fill="#699DEE"/>
<path d="M1738.73 411.631V453.325L1671.21 411.631H1738.73Z" fill="#4271BC"/>
<path d="M762.284 688.666C809.421 688.666 847.621 651.662 847.621 606H677C677 651.662 715.199 688.666 762.284 688.666Z" fill="#F1A34F"/>
<rect x="902" y="689" width="837" height="41" fill="#298358"/>
</svg>
