<svg width="27" height="29" viewBox="0 0 27 29" fill="none" xmlns="http://www.w3.org/2000/svg">
<path fill-rule="evenodd" clip-rule="evenodd" d="M4.26321 0C3.13253 0 2.04817 0.449158 1.24866 1.24866C0.449158 2.04817 0 3.13253 0 4.26321V24.1582C0 25.2888 0.449158 26.3732 1.24866 27.1727C2.04817 27.9722 3.13253 28.4214 4.26321 28.4214H12.7896C13.9203 28.4214 15.0047 27.9722 15.8042 27.1727C16.6037 26.3732 17.0528 25.2888 17.0528 24.1582V4.26321C17.0528 3.13253 16.6037 2.04817 15.8042 1.24866C15.0047 0.449158 13.9203 0 12.7896 0H4.26321ZM18.8903 7.52172C19.1568 7.25531 19.5181 7.10565 19.895 7.10565C20.2718 7.10565 20.6332 7.25531 20.8997 7.52172L26.5839 13.206C26.8503 13.4725 27 13.8339 27 14.2107C27 14.5875 26.8503 14.9489 26.5839 15.2154L20.8997 20.8997C20.6316 21.1585 20.2727 21.3017 19.9001 21.2985C19.5275 21.2953 19.1711 21.1458 18.9076 20.8823C18.6441 20.6189 18.4946 20.2624 18.4914 19.8898C18.4882 19.5172 18.6314 19.1583 18.8903 18.8903L22.1488 15.6318H9.94748C9.57059 15.6318 9.20914 15.482 8.94263 15.2155C8.67613 14.949 8.52641 14.5876 8.52641 14.2107C8.52641 13.8338 8.67613 13.4723 8.94263 13.2058C9.20914 12.9393 9.57059 12.7896 9.94748 12.7896H22.1488L18.8903 9.53111C18.6239 9.26462 18.4742 8.90323 18.4742 8.52641C18.4742 8.14959 18.6239 7.78821 18.8903 7.52172Z" fill="#9BA4BE"/>
</svg>
