<svg width="75" height="97" viewBox="0 0 75 97" fill="none" xmlns="http://www.w3.org/2000/svg">
<path d="M32.8818 61.2164V38.0243C32.9868 30.9232 36.5548 24.6966 42.0118 20.9537C45.4049 18.61 49.4977 17.2457 53.9402 17.2457C58.3478 17.2457 62.4755 18.61 65.8686 20.9537C71.3956 24.7316 74.9986 31.0981 74.9986 38.3041V64.3997C74.9986 66.9533 72.9347 69.0171 70.3811 69.0171C69.1218 69.0171 67.9675 68.4924 67.1279 67.6529C66.2884 66.8134 65.7637 65.659 65.7637 64.3997V38.3041C65.7637 31.7627 60.4466 26.4456 53.9052 26.4456C47.3988 26.4456 42.1167 31.6928 42.0468 38.1992C42.0468 38.2341 42.0468 38.2691 42.0468 38.3041C42.0468 38.3391 42.0468 38.3741 42.0468 38.409V55.7245V61.3214C42.0118 63.2104 40.8574 64.8195 39.2133 65.5191C38.6536 65.7639 38.059 65.8689 37.4293 65.8689C36.17 65.8689 35.0157 65.3442 34.1761 64.5046C33.4065 63.6301 32.8818 62.4758 32.8818 61.2164Z" fill="#1E2655"/>
<path d="M42.0818 52.0502V75.2424C41.9768 82.3435 38.4088 88.57 32.9518 92.313C29.5587 94.6567 25.4659 96.0209 21.0234 96.0209C16.6158 96.0209 12.4881 94.6567 9.09498 92.313C3.60301 88.535 0 82.1686 0 74.9975V48.9019C0 46.3483 2.06386 44.2845 4.61745 44.2845C5.87675 44.2845 7.03112 44.8092 7.87065 45.6487C8.71019 46.4883 9.2349 47.6426 9.2349 48.9019V74.9975C9.2349 81.5389 14.552 86.856 21.0934 86.856C27.5998 86.856 32.8818 81.6089 32.9518 75.1025C32.9518 75.0675 32.9518 75.0325 32.9518 74.9975C32.9518 74.9625 32.9518 74.9276 32.9518 74.8926V57.5771V51.9802C32.9868 50.0913 34.1411 48.4822 35.7852 47.7826C36.3449 47.5377 36.9396 47.4327 37.5693 47.4327C38.8286 47.4327 39.9829 47.9575 40.8225 48.797C41.592 49.6365 42.0818 50.7909 42.0818 52.0502Z" fill="#2093D1"/>
<path d="M21.3024 38.5524C24.5673 38.5524 27.2141 35.9056 27.2141 32.6407C27.2141 29.3757 24.5673 26.7289 21.3024 26.7289C18.0374 26.7289 15.3906 29.3757 15.3906 32.6407C15.3906 35.9056 18.0374 38.5524 21.3024 38.5524Z" fill="#2093D1"/>
<path d="M53.941 11.8235C57.206 11.8235 59.8528 9.1767 59.8528 5.91174C59.8528 2.64677 57.206 0 53.941 0C50.6761 0 48.0293 2.64677 48.0293 5.91174C48.0293 9.1767 50.6761 11.8235 53.941 11.8235Z" fill="#1E2655"/>
<path d="M28.2308 72.9734L21.0597 79.7596L13.8887 72.9734L16.6172 43.1348C17.9814 43.6945 19.4856 44.0093 21.0947 44.0093C22.6688 44.0093 24.173 43.6945 25.5722 43.1348L28.2308 72.9734Z" fill="#1E2655"/>
<path d="M61.1116 62.8591L53.9406 69.6104L46.7695 62.8241L48.2387 46.5581L49.498 32.8806C49.603 32.8107 49.7079 32.7757 49.7779 32.7057C51.0022 32.0061 52.4364 31.6213 53.9406 31.6213C55.4447 31.6213 56.879 32.0061 58.1033 32.7057C58.2082 32.7757 58.3132 32.8107 58.3831 32.8806L59.6424 46.5581L61.1116 62.8591Z" fill="#2093D1"/>
</svg>
