<svg width="1356" height="541" viewBox="0 0 1356 541" fill="none" xmlns="http://www.w3.org/2000/svg">
<path d="M471.205 236V141.5H493.075V218.18H540.46V236H471.205ZM575.626 179.57H621.121V196.58H575.626V179.57ZM577.246 218.45H628.681V236H555.511V141.5H626.926V159.05H577.246V218.45ZM668.358 236V159.32H638.118V141.5H720.468V159.32H690.228V236H668.358ZM732.969 180.65L741.879 148.25L744.849 160.535C740.979 160.535 737.784 159.41 735.264 157.16C732.834 154.82 731.619 151.67 731.619 147.71C731.619 143.84 732.879 140.735 735.399 138.395C737.919 135.965 741.024 134.75 744.714 134.75C748.494 134.75 751.599 135.965 754.029 138.395C756.459 140.735 757.674 143.84 757.674 147.71C757.674 148.88 757.584 150.05 757.404 151.22C757.314 152.3 756.999 153.605 756.459 155.135C756.009 156.665 755.244 158.69 754.164 161.21L746.334 180.65H732.969ZM808.499 237.62C800.939 237.62 793.694 236.63 786.764 234.65C779.834 232.58 774.254 229.925 770.024 226.685L777.449 210.215C781.499 213.095 786.269 215.48 791.759 217.37C797.339 219.17 802.964 220.07 808.634 220.07C812.954 220.07 816.419 219.665 819.029 218.855C821.729 217.955 823.709 216.74 824.969 215.21C826.229 213.68 826.859 211.925 826.859 209.945C826.859 207.425 825.869 205.445 823.889 204.005C821.909 202.475 819.299 201.26 816.059 200.36C812.819 199.37 809.219 198.47 805.259 197.66C801.389 196.76 797.474 195.68 793.514 194.42C789.644 193.16 786.089 191.54 782.849 189.56C779.609 187.58 776.954 184.97 774.884 181.73C772.904 178.49 771.914 174.35 771.914 169.31C771.914 163.91 773.354 159.005 776.234 154.595C779.204 150.095 783.614 146.54 789.464 143.93C795.404 141.23 802.829 139.88 811.739 139.88C817.679 139.88 823.529 140.6 829.289 142.04C835.049 143.39 840.134 145.46 844.544 148.25L837.794 164.855C833.384 162.335 828.974 160.49 824.564 159.32C820.154 158.06 815.834 157.43 811.604 157.43C807.374 157.43 803.909 157.925 801.209 158.915C798.509 159.905 796.574 161.21 795.404 162.83C794.234 164.36 793.649 166.16 793.649 168.23C793.649 170.66 794.639 172.64 796.619 174.17C798.599 175.61 801.209 176.78 804.449 177.68C807.689 178.58 811.244 179.48 815.114 180.38C819.074 181.28 822.989 182.315 826.859 183.485C830.819 184.655 834.419 186.23 837.659 188.21C840.899 190.19 843.509 192.8 845.489 196.04C847.559 199.28 848.594 203.375 848.594 208.325C848.594 213.635 847.109 218.495 844.139 222.905C841.169 227.315 836.714 230.87 830.774 233.57C824.924 236.27 817.499 237.62 808.499 237.62Z" fill="#2093D1"/>
<path d="M491.455 349.025H536.815V366.575H491.455V349.025ZM493.075 401H471.205V306.5H542.62V324.05H493.075V401ZM560.126 401V306.5H581.996V401H560.126ZM652.753 402.62C645.283 402.62 638.398 401.45 632.098 399.11C625.888 396.68 620.443 393.26 615.763 388.85C611.173 384.44 607.573 379.265 604.963 373.325C602.443 367.385 601.183 360.86 601.183 353.75C601.183 346.64 602.443 340.115 604.963 334.175C607.573 328.235 611.218 323.06 615.898 318.65C620.578 314.24 626.068 310.865 632.368 308.525C638.668 306.095 645.598 304.88 653.158 304.88C661.528 304.88 669.043 306.275 675.703 309.065C682.453 311.855 688.123 315.905 692.713 321.215L678.673 334.175C675.253 330.575 671.518 327.92 667.468 326.21C663.418 324.41 659.008 323.51 654.238 323.51C649.648 323.51 645.463 324.23 641.683 325.67C637.903 327.11 634.618 329.18 631.828 331.88C629.128 334.58 627.013 337.775 625.483 341.465C624.043 345.155 623.323 349.25 623.323 353.75C623.323 358.16 624.043 362.21 625.483 365.9C627.013 369.59 629.128 372.83 631.828 375.62C634.618 378.32 637.858 380.39 641.548 381.83C645.328 383.27 649.468 383.99 653.968 383.99C658.288 383.99 662.473 383.315 666.523 381.965C670.663 380.525 674.668 378.14 678.538 374.81L690.958 390.605C685.828 394.475 679.843 397.445 673.003 399.515C666.253 401.585 659.503 402.62 652.753 402.62ZM670.978 387.77V352.265H690.958V390.605L670.978 387.77ZM778.773 306.5H800.643V401H778.773V306.5ZM735.843 401H713.973V306.5H735.843V401ZM780.393 362.255H734.223V343.76H780.393V362.255ZM845.276 401V324.32H815.036V306.5H897.386V324.32H867.146V401H845.276ZM952.786 401V306.5H998.956C1010.84 306.5 1019.75 308.75 1025.69 313.25C1031.72 317.75 1034.73 323.69 1034.73 331.07C1034.73 336.02 1033.52 340.34 1031.09 344.03C1028.66 347.63 1025.33 350.42 1021.1 352.4C1016.87 354.38 1012.01 355.37 1006.52 355.37L1009.08 349.835C1015.02 349.835 1020.29 350.825 1024.88 352.805C1029.47 354.695 1033.02 357.53 1035.54 361.31C1038.15 365.09 1039.46 369.725 1039.46 375.215C1039.46 383.315 1036.26 389.66 1029.87 394.25C1023.48 398.75 1014.08 401 1001.66 401H952.786ZM974.521 384.53H1000.04C1005.71 384.53 1009.98 383.63 1012.86 381.83C1015.83 379.94 1017.32 376.97 1017.32 372.92C1017.32 368.96 1015.83 366.035 1012.86 364.145C1009.98 362.165 1005.71 361.175 1000.04 361.175H972.901V345.245H996.256C1001.57 345.245 1005.62 344.345 1008.41 342.545C1011.29 340.655 1012.73 337.82 1012.73 334.04C1012.73 330.35 1011.29 327.605 1008.41 325.805C1005.62 323.915 1001.57 322.97 996.256 322.97H974.521V384.53ZM1046.29 401L1088.41 306.5H1110.01L1152.27 401H1129.32L1094.76 317.57H1103.4L1068.7 401H1046.29ZM1067.35 380.75L1073.16 364.145H1121.76L1127.7 380.75H1067.35ZM1208.68 402.62C1201.39 402.62 1194.59 401.45 1188.29 399.11C1182.08 396.68 1176.68 393.26 1172.09 388.85C1167.5 384.44 1163.9 379.265 1161.29 373.325C1158.77 367.385 1157.51 360.86 1157.51 353.75C1157.51 346.64 1158.77 340.115 1161.29 334.175C1163.9 328.235 1167.5 323.06 1172.09 318.65C1176.77 314.24 1182.22 310.865 1188.43 308.525C1194.64 306.095 1201.43 304.88 1208.81 304.88C1217 304.88 1224.38 306.32 1230.95 309.2C1237.61 311.99 1243.19 316.13 1247.69 321.62L1233.65 334.58C1230.41 330.89 1226.81 328.145 1222.85 326.345C1218.89 324.455 1214.57 323.51 1209.89 323.51C1205.48 323.51 1201.43 324.23 1197.74 325.67C1194.05 327.11 1190.86 329.18 1188.16 331.88C1185.46 334.58 1183.34 337.775 1181.81 341.465C1180.37 345.155 1179.65 349.25 1179.65 353.75C1179.65 358.25 1180.37 362.345 1181.81 366.035C1183.34 369.725 1185.46 372.92 1188.16 375.62C1190.86 378.32 1194.05 380.39 1197.74 381.83C1201.43 383.27 1205.48 383.99 1209.89 383.99C1214.57 383.99 1218.89 383.09 1222.85 381.29C1226.81 379.4 1230.41 376.565 1233.65 372.785L1247.69 385.745C1243.19 391.235 1237.61 395.42 1230.95 398.3C1224.38 401.18 1216.96 402.62 1208.68 402.62ZM1284.74 379.4L1283.52 354.155L1328.75 306.5H1353.05L1312.28 350.375L1300.13 363.335L1284.74 379.4ZM1265.16 401V306.5H1286.9V401H1265.16ZM1329.83 401L1296.21 359.825L1310.52 344.3L1355.34 401H1329.83Z" fill="#1E2655"/>
<rect width="422" height="540.293" fill="white"/>
<path d="M185.019 344.449V213.952C185.609 173.996 205.686 138.961 236.391 117.9C255.483 104.712 278.512 97.0361 303.509 97.0361C328.31 97.0361 351.536 104.712 370.628 117.9C401.727 139.157 422 174.98 422 215.527V362.361C422 376.729 410.387 388.342 396.019 388.342C388.933 388.342 382.438 385.39 377.714 380.666C372.99 375.942 370.037 369.447 370.037 362.361V215.527C370.037 178.72 340.12 148.802 303.313 148.802C266.703 148.802 236.981 178.326 236.588 214.936C236.588 215.133 236.588 215.33 236.588 215.527C236.588 215.724 236.588 215.92 236.588 216.117V313.547V345.04C236.391 355.669 229.896 364.723 220.645 368.659C217.495 370.037 214.149 370.628 210.606 370.628C203.521 370.628 197.025 367.675 192.301 362.951C187.971 358.031 185.019 351.535 185.019 344.449Z" fill="#1E2655"/>
<path d="M236.785 292.879V423.377C236.194 463.333 216.118 498.368 185.412 519.429C166.32 532.616 143.291 540.293 118.294 540.293C93.4935 540.293 70.2677 532.616 51.1754 519.429C20.2733 498.171 0 462.349 0 421.999V275.165C0 260.796 11.6129 249.184 25.9813 249.184C33.0672 249.184 39.5625 252.136 44.2864 256.86C49.0103 261.584 51.9627 268.079 51.9627 275.165V421.999C51.9627 458.806 81.8806 488.724 118.688 488.724C155.298 488.724 185.019 459.199 185.412 422.589C185.412 422.393 185.412 422.196 185.412 421.999C185.412 421.802 185.412 421.605 185.412 421.408V323.978V292.486C185.609 281.857 192.104 272.803 201.355 268.866C204.505 267.489 207.851 266.898 211.394 266.898C218.479 266.898 224.975 269.851 229.699 274.574C234.029 279.298 236.785 285.794 236.785 292.879Z" fill="#2093D1"/>
<path d="M119.868 216.906C138.24 216.906 153.132 202.013 153.132 183.642C153.132 165.271 138.24 150.378 119.868 150.378C101.497 150.378 86.6045 165.271 86.6045 183.642C86.6045 202.013 101.497 216.906 119.868 216.906Z" fill="#2093D1"/>
<path d="M303.509 66.528C321.881 66.528 336.773 51.6352 336.773 33.264C336.773 14.8928 321.881 0 303.509 0C285.138 0 270.245 14.8928 270.245 33.264C270.245 51.6352 285.138 66.528 303.509 66.528Z" fill="#1E2655"/>
<path d="M158.84 410.584L118.491 448.769L78.1409 410.584L93.4935 242.689C101.17 245.839 109.633 247.61 118.688 247.61C127.545 247.61 136.008 245.839 143.882 242.689L158.84 410.584Z" fill="#1E2655"/>
<path d="M343.859 353.701L303.509 391.689L263.16 353.505L271.426 261.979L278.512 185.019C279.103 184.626 279.693 184.429 280.087 184.035C286.976 180.099 295.046 177.934 303.509 177.934C311.973 177.934 320.043 180.099 326.932 184.035C327.523 184.429 328.113 184.626 328.507 185.019L335.593 261.979L343.859 353.701Z" fill="#2093D1"/>
</svg>
