<svg width="627" height="524" viewBox="0 0 627 524" fill="none" xmlns="http://www.w3.org/2000/svg">
<path d="M308.679 212.486L311.398 216.055L39.9443 432.187L51.5028 446.46L53.0326 448.499L324.657 232.197L327.546 235.765L332.646 212.486H308.679Z" fill="#407BFF"/>
<path opacity="0.7" d="M308.679 212.486L311.398 216.055L39.9443 432.187L51.5028 446.46L53.0326 448.499L324.657 232.197L327.546 235.765L332.646 212.486H308.679Z" fill="white"/>
<path d="M0 447.31C0 442.382 4.07946 438.304 9.00881 438.304C9.85869 438.304 10.7086 438.474 11.5585 438.644C11.3885 437.794 11.3885 436.775 11.3885 435.925C11.3885 425.391 19.8874 417.065 30.256 417.065C31.4458 417.065 32.6357 417.235 33.8255 417.405C36.7151 412.647 41.9844 409.418 47.9337 409.418C56.9425 409.418 64.4215 416.725 64.4215 425.73C64.5914 425.73 64.5914 425.73 64.7614 425.73C73.2603 425.73 80.0594 432.527 80.0594 441.023C80.0594 449.519 73.2603 456.315 64.7614 456.315H8.83883C3.90948 456.145 0 452.237 0 447.31Z" fill="#407BFF"/>
<path opacity="0.8" d="M0 447.31C0 442.382 4.07946 438.304 9.00881 438.304C9.85869 438.304 10.7086 438.474 11.5585 438.644C11.3885 437.794 11.3885 436.775 11.3885 435.925C11.3885 425.391 19.8874 417.065 30.256 417.065C31.4458 417.065 32.6357 417.235 33.8255 417.405C36.7151 412.647 41.9844 409.418 47.9337 409.418C56.9425 409.418 64.4215 416.725 64.4215 425.73C64.5914 425.73 64.5914 425.73 64.7614 425.73C73.2603 425.73 80.0594 432.527 80.0594 441.023C80.0594 449.519 73.2603 456.315 64.7614 456.315H8.83883C3.90948 456.145 0 452.237 0 447.31Z" fill="white"/>
<path d="M569.083 349.438L575.882 357.764L449.759 459.714L477.125 493.697L480.865 498.285L607.158 396.335L613.957 404.831L626.025 349.269L569.083 349.438Z" fill="#407BFF"/>
<path opacity="0.5" d="M569.083 349.438L575.882 357.764L449.759 459.714L477.125 493.697L480.865 498.285L607.158 396.335L613.957 404.831L626.025 349.269L569.083 349.438Z" fill="white"/>
<path d="M500.922 455.976C495.823 447.82 486.814 442.382 476.445 442.382C465.907 442.382 456.898 447.99 451.799 456.315C450.439 455.976 449.079 455.806 447.719 455.806C439.22 455.806 432.251 462.772 432.251 471.268H424.092C419.843 471.268 416.443 474.666 416.443 478.914C416.443 483.162 419.843 486.56 424.092 486.56H452.139C457.238 494.546 466.247 499.984 476.445 499.984C484.434 499.984 491.743 496.585 497.013 491.318C497.523 491.318 498.033 491.318 498.542 491.318C508.401 491.318 516.39 483.332 516.39 473.477C516.39 464.641 509.591 457.165 500.922 455.976Z" fill="#407BFF"/>
<path opacity="0.8" d="M500.922 455.976C495.823 447.82 486.814 442.382 476.445 442.382C465.907 442.382 456.898 447.99 451.799 456.315C450.439 455.976 449.079 455.806 447.719 455.806C439.22 455.806 432.251 462.772 432.251 471.268H424.092C419.843 471.268 416.443 474.666 416.443 478.914C416.443 483.162 419.843 486.56 424.092 486.56H452.139C457.238 494.546 466.247 499.984 476.445 499.984C484.434 499.984 491.743 496.585 497.013 491.318C497.523 491.318 498.033 491.318 498.542 491.318C508.401 491.318 516.39 483.332 516.39 473.477C516.39 464.641 509.591 457.165 500.922 455.976Z" fill="white"/>
<path d="M311.398 111.217L309.018 108.668C308.338 107.989 307.318 107.649 306.468 107.819L302.729 108.498C301.539 108.668 300.689 109.688 300.519 110.877L298.649 126.17L304.259 128.378C311.228 125.32 310.888 116.145 310.888 116.145L311.908 114.275C312.418 113.426 312.248 112.236 311.398 111.217Z" fill="#FFB573"/>
<path d="M242.897 157.264C242.897 157.264 248.336 157.604 251.566 157.434C254.795 157.434 258.025 157.264 261.085 157.094C264.144 156.924 267.374 156.754 270.263 156.245C271.623 156.075 272.983 155.735 274.173 155.565C274.683 155.395 275.193 155.225 275.363 155.225C275.703 155.055 275.363 155.395 275.533 155.225C276.043 154.715 277.062 153.526 278.082 152.336C278.932 151.147 279.952 149.958 280.802 148.598C282.672 146.05 284.541 143.331 286.411 140.612L297.46 124.13L306.129 128.718C304.769 131.947 303.409 135.005 302.049 138.064C300.689 141.122 299.159 144.181 297.63 147.239C296.1 150.297 294.57 153.356 292.7 156.245C291.85 157.774 291.001 159.303 289.981 160.832C288.961 162.361 287.941 163.891 286.241 165.76C285.221 166.779 283.522 168.139 282.332 168.648C281.142 169.328 279.952 169.838 278.932 170.178C276.892 170.857 275.023 171.367 273.153 171.877C269.413 172.726 265.844 173.236 262.444 173.576C255.475 174.256 248.676 174.595 241.537 174.425L242.897 157.264Z" fill="#407BFF"/>
<path opacity="0.7" d="M305.96 128.888C304.6 132.117 303.24 135.175 301.88 138.233C300.35 141.292 298.99 144.35 297.461 147.409C295.931 150.467 294.401 153.526 292.701 156.414C291.851 157.944 291.001 159.473 289.982 161.002C288.962 162.531 287.942 164.061 286.242 166.1C285.222 167.119 283.522 168.478 282.333 168.988C281.143 169.668 279.953 170.178 278.933 170.517C276.893 171.197 275.024 171.707 273.154 172.217C269.414 173.066 265.845 173.576 262.445 173.916C260.915 174.086 259.386 174.256 258.026 174.256C252.587 174.595 247.147 174.765 241.708 174.595L242.048 171.027L243.068 157.264C243.068 157.264 248.507 157.604 251.737 157.604C254.966 157.604 258.196 157.434 261.255 157.264C264.315 157.094 267.545 156.924 270.434 156.414C271.794 156.245 273.154 155.905 274.344 155.735C274.854 155.565 275.364 155.395 275.534 155.395C275.873 155.225 275.534 155.565 275.704 155.395C276.213 154.885 277.233 153.696 278.253 152.506C279.103 151.317 280.123 149.958 280.973 148.768C282.843 146.22 284.712 143.501 286.582 140.782L297.631 124.3L305.96 128.888Z" fill="white"/>
<path opacity="0.1" d="M257.855 174.086C252.416 174.426 246.976 174.595 241.537 174.426L241.877 170.857L243.237 167.799C243.067 167.799 252.076 167.799 257.855 174.086Z" fill="black"/>
<path d="M151.96 462.092C151.96 462.092 136.492 451.558 137.512 444.421C137.682 443.742 137.172 443.062 136.492 443.062L123.403 441.023C122.724 440.853 122.214 441.193 121.704 441.703L114.055 452.577L117.454 453.767L119.324 452.407L120.174 454.616C139.041 461.413 147.2 464.131 151.28 464.301C152.47 462.942 151.96 462.092 151.96 462.092Z" fill="black"/>
<path d="M238.649 262.272C238.649 262.272 237.799 264.311 236.439 267.879C234.909 271.617 232.87 277.224 230.15 283.851C228.45 288.269 226.41 293.197 224.371 298.294C214.852 322.082 202.444 351.647 194.115 366.6C178.477 395.146 137.342 449.179 137.342 449.179L121.024 443.232C121.024 443.232 150.431 387.5 165.389 359.124C169.978 350.458 175.077 337.884 180.347 323.951C182.896 317.325 185.276 310.528 187.656 303.731C188.675 300.673 189.695 297.614 190.885 294.556C193.605 286.57 196.154 278.924 198.364 272.127C198.704 271.277 198.874 270.428 199.214 269.578C200.064 266.69 200.914 264.141 201.764 261.592C204.993 251.567 206.863 244.941 207.033 244.601L221.651 252.587L238.649 262.272Z" fill="#263238"/>
<path opacity="0.3" d="M236.439 267.879C234.909 271.617 232.869 277.224 230.15 283.851C228.45 288.269 226.41 293.196 224.37 298.294C210.942 301.013 197.344 302.882 187.655 303.901C188.675 300.843 189.695 297.784 190.885 294.726C193.604 286.74 196.154 279.093 198.364 272.297C198.704 271.447 198.874 270.598 199.214 269.748C200.064 266.86 200.914 264.311 201.763 261.762C211.452 263.291 224.54 265.33 236.439 267.879Z" fill="black"/>
<path d="M186.296 166.27C188.676 174.256 190.035 183.431 190.885 192.437C191.395 199.403 191.735 206.37 191.735 212.657C191.735 218.944 191.565 224.551 191.395 228.799C191.055 234.236 190.715 237.634 190.715 237.634L242.388 240.353C257.856 184.281 242.898 157.434 242.898 157.434C242.898 157.434 236.439 156.754 229.13 157.094C228.11 157.094 227.26 157.264 226.241 157.264C219.951 157.774 209.923 159.813 203.124 161.342C201.764 161.682 200.404 162.022 199.044 162.362C192.075 164.061 186.296 166.27 186.296 166.27Z" fill="#407BFF"/>
<path opacity="0.7" d="M242.389 240.353L190.715 237.634C190.715 237.634 191.055 234.236 191.225 228.799C191.225 227.269 191.395 225.4 191.395 223.361C191.565 220.133 191.565 216.565 191.565 212.657C191.565 210.788 191.565 208.749 191.395 206.88C191.395 206.54 191.395 206.2 191.395 205.86C191.225 202.632 191.225 199.403 190.885 196.005C190.715 194.816 190.715 193.626 190.545 192.437C190.545 191.417 190.375 190.568 190.375 189.548C190.205 187.169 189.865 184.791 189.526 182.412C189.356 181.732 189.356 181.052 189.186 180.543C189.016 179.523 188.846 178.504 188.676 177.314C187.996 173.406 187.146 169.668 186.126 166.1C186.126 166.1 191.905 163.891 198.704 162.022C200.064 161.682 201.424 161.342 202.784 161.002C209.583 159.473 219.612 157.434 225.901 156.924C226.921 156.924 227.94 156.754 228.79 156.754C236.099 156.415 242.558 157.094 242.558 157.094C242.558 157.094 257.856 184.111 242.389 240.353Z" fill="white"/>
<path d="M274.343 374.586C274.343 374.586 259.555 363.202 260.915 356.065C261.085 355.386 260.745 354.706 259.895 354.536L246.977 351.817C246.297 351.647 245.787 351.987 245.277 352.497L236.948 362.862L240.348 364.391L242.218 363.202L242.897 365.581C261.255 373.397 269.244 376.625 273.493 377.135C274.853 375.606 274.343 374.586 274.343 374.586Z" fill="black"/>
<path d="M215.361 284.191C216.211 284.191 216.551 284.191 216.551 284.191L278.422 293.196L243.237 351.647L260.915 358.444C260.915 358.444 324.656 289.628 310.548 273.996C298.82 261.082 241.367 253.266 241.367 253.266L243.237 239.843L190.034 229.308C167.257 278.924 207.712 283.681 215.361 284.191Z" fill="#263238"/>
<path d="M189.355 234.406L188.335 234.236L189.355 230.668L190.375 230.838L189.355 234.406Z" fill="#263238"/>
<path d="M231.17 242.562L208.562 238.144L209.412 234.576L232.019 238.994L231.17 242.562Z" fill="#263238"/>
<path d="M233.719 239.333L243.408 241.203L242.728 244.771L233.039 242.902L233.719 239.333Z" fill="#263238"/>
<path d="M192.074 231.178L207.712 234.236L206.693 237.804L191.225 234.916L192.074 231.178Z" fill="#263238"/>
<g opacity="0.2">
<path d="M189.355 234.406L188.335 234.236L189.355 230.668L190.375 230.838L189.355 234.406Z" fill="white"/>
<path d="M231.17 242.562L208.562 238.144L209.412 234.576L232.019 238.994L231.17 242.562Z" fill="white"/>
<path d="M233.719 239.333L243.408 241.203L242.728 244.771L233.039 242.902L233.719 239.333Z" fill="white"/>
<path d="M192.074 231.178L207.712 234.236L206.693 237.804L191.225 234.916L192.074 231.178Z" fill="white"/>
</g>
<path d="M224.881 238.314L224.371 240.523C224.371 240.863 224.031 241.033 223.521 241.033L217.912 240.013C217.572 240.013 217.232 239.503 217.402 239.163L217.912 236.955C218.082 236.615 218.422 236.445 218.761 236.445L224.371 237.464C224.711 237.634 225.051 237.974 224.881 238.314Z" stroke="white" stroke-width="0.463307" stroke-miterlimit="10"/>
<path d="M220.122 238.484L218.422 238.144" stroke="white" stroke-width="0.463307" stroke-miterlimit="10" stroke-linecap="round" stroke-linejoin="round"/>
<path d="M208.391 137.724L221.819 148.938C220.459 154.375 222.839 159.473 225.389 160.323C225.389 160.323 227.429 165.08 223.519 165.76C215.87 167.289 207.031 159.983 207.031 159.983C211.281 155.735 209.751 144.69 208.391 137.724Z" fill="#EBB376"/>
<path opacity="0.2" d="M213.83 142.312L221.819 148.938C221.479 150.298 221.309 151.487 221.14 152.846C218.08 152.506 214 149.278 213.66 146.22C213.49 144.52 213.491 142.991 213.83 142.312Z" fill="black"/>
<path d="M220.292 115.635C223.521 117.674 227.941 123.791 222.501 125.32C216.892 126.849 214.682 112.236 220.292 115.635Z" fill="#263238"/>
<path d="M203.464 136.704C209.243 144.181 212.133 148.938 218.762 150.298C228.79 152.337 235.929 142.142 232.7 133.136C229.64 124.98 220.801 113.936 211.113 116.145C201.424 118.014 197.685 129.058 203.464 136.704Z" fill="#FFB573"/>
<path d="M204.994 128.378L198.195 120.392C198.195 120.392 189.186 127.019 193.265 131.097C190.546 137.554 201.254 146.39 210.773 144.52C211.793 138.743 203.464 128.888 203.464 128.888C203.974 128.888 204.484 128.718 204.994 128.378Z" fill="#263238"/>
<path d="M204.653 145.2C206.693 146.729 209.072 147.409 211.282 147.069C214.342 146.729 214.682 143.501 212.812 141.292C211.112 139.253 207.543 136.874 204.823 138.404C202.273 139.933 202.443 143.331 204.653 145.2Z" fill="#FFB573"/>
<path d="M221.821 127.699C221.821 127.699 225.731 130.248 228.45 130.927C227.94 132.626 225.731 133.476 225.731 133.476L221.821 127.699Z" fill="#ED893E"/>
<path d="M203.464 129.058C203.464 129.058 221.481 121.582 222.501 112.916C223.521 104.25 216.042 107.819 216.042 107.819C216.042 107.819 219.611 107.649 219.271 110.198C219.271 110.198 213.152 106.12 207.373 109.688C207.373 109.688 210.093 109.688 211.453 111.557C211.453 111.557 206.013 112.576 199.894 117.164C193.605 121.752 182.556 138.064 203.464 129.058Z" fill="#263238"/>
<path opacity="0.3" d="M241.198 253.096L211.962 249.698C211.962 249.698 223.52 247.829 241.878 248.509L241.198 253.096Z" fill="black"/>
<path opacity="0.1" d="M191.054 196.175C190.884 194.985 190.884 193.796 190.714 192.606C190.714 191.587 190.544 190.737 190.544 189.718C190.374 187.339 190.034 184.96 189.694 182.581C189.524 181.902 189.524 181.222 189.354 180.712C190.204 180.033 191.054 179.523 191.904 179.013C191.904 179.013 193.604 187.509 191.054 196.175Z" fill="black"/>
<path d="M142.27 237.804L137.171 249.698L148.219 252.417C148.219 252.417 152.979 244.601 148.389 238.654L142.27 237.804Z" fill="#EBB376"/>
<path d="M138.021 259.044H146.69L148.219 252.417L137.171 249.698L138.021 259.044Z" fill="#EBB376"/>
<path d="M191.734 174.595C192.414 182.072 189.865 185.13 189.865 185.13C189.865 185.13 182.556 189.718 179.496 192.097C176.776 194.136 174.227 196.175 171.677 198.214C170.487 199.233 169.297 200.253 168.107 201.272C167.088 202.292 166.068 203.311 165.388 204.161C165.048 204.501 164.878 205.01 164.538 205.52C164.198 206.03 163.858 206.71 163.518 207.389C162.838 208.749 162.158 210.278 161.648 211.807C160.458 214.865 159.269 217.924 158.079 221.152C155.699 227.609 153.489 234.066 151.28 240.523L141.251 238.144C142.271 231.177 143.631 224.211 145.16 217.244C146.01 213.846 146.86 210.278 148.05 206.71C148.56 205.01 149.24 203.141 149.92 201.272C150.26 200.253 150.6 199.403 151.11 198.384C151.62 197.364 152.13 196.345 152.809 195.155C154.169 193.116 155.529 191.587 156.889 190.058C158.249 188.529 159.609 187.169 160.968 185.98C163.688 183.431 166.408 181.052 169.297 178.673C174.907 174.086 180.516 170.008 186.635 165.93C186.805 166.27 191.054 167.799 191.734 174.595Z" fill="#407BFF"/>
<path opacity="0.7" d="M191.734 174.595C192.414 182.072 189.865 185.13 189.865 185.13C189.865 185.13 182.556 189.718 179.496 192.097C176.776 194.136 174.227 196.175 171.677 198.214C170.487 199.233 169.297 200.253 168.107 201.272C167.088 202.292 166.068 203.311 165.388 204.161C165.048 204.501 164.878 205.01 164.538 205.52C164.198 206.03 163.858 206.71 163.518 207.389C162.838 208.749 162.158 210.278 161.648 211.807C160.458 214.865 159.269 217.924 158.079 221.152C155.699 227.609 153.489 234.066 151.28 240.523L141.251 238.144C142.271 231.177 143.631 224.211 145.16 217.244C146.01 213.846 146.86 210.278 148.05 206.71C148.56 205.01 149.24 203.141 149.92 201.272C150.26 200.253 150.6 199.403 151.11 198.384C151.62 197.364 152.13 196.345 152.809 195.155C154.169 193.116 155.529 191.587 156.889 190.058C158.249 188.529 159.609 187.169 160.968 185.98C163.688 183.431 166.408 181.052 169.297 178.673C174.907 174.086 180.516 170.008 186.635 165.93C186.805 166.27 191.054 167.799 191.734 174.595Z" fill="white"/>
<path d="M214.682 164.57L218.421 170.518C218.421 170.518 205.163 186.49 180.006 191.757L178.307 196.854L183.746 198.214C183.746 198.214 210.942 191.247 221.821 170.687L227.43 164.401L220.801 162.192L214.682 164.57Z" fill="#407BFF"/>
<path d="M202.443 161.002L208.563 155.565L220.801 162.362L222.161 155.055L228.62 158.793L230.49 168.139L221.481 164.231L213.492 171.537L202.443 161.002Z" fill="#407BFF"/>
<path opacity="0.6" d="M202.443 161.002L208.563 155.565L220.801 162.362L222.161 155.055L228.62 158.793L230.49 168.139L221.481 164.231L213.492 171.537L202.443 161.002Z" fill="white"/>
<path d="M371.061 54.635C371.061 54.635 359.672 68.738 348.114 67.5486C336.555 66.3592 330.606 71.1168 330.606 71.1168L329.416 76.724L335.705 75.8745C335.705 75.8745 335.705 71.4566 347.774 71.9664C359.842 72.4761 369.021 62.1113 372.42 57.3537L371.061 54.635Z" fill="#407BFF"/>
<path d="M453.16 31.1867L452.99 29.9973C452.82 29.4876 452.99 29.4876 452.48 28.4681C451.8 26.7689 450.78 25.4096 449.76 24.3901C447.721 22.521 446.021 21.8414 444.491 21.3316C441.601 20.3121 439.222 19.9723 437.012 19.6325C434.802 19.2926 432.593 19.2926 430.553 19.1227C426.303 18.9528 422.224 19.2926 418.145 19.4626C409.986 19.9723 402.167 20.9918 394.178 22.3511L397.067 39.1728C404.376 37.9833 412.025 36.9639 419.504 36.1143C423.244 35.7744 426.983 35.4346 430.383 35.4346C432.083 35.4346 433.952 35.4346 435.482 35.4346C436.672 35.4346 437.692 35.6045 438.542 35.7744C438.542 36.2842 438.542 36.9639 438.542 37.6435C438.372 40.5321 437.692 43.9304 436.672 47.3287C434.632 54.1253 431.573 61.0919 428.343 67.7186L436.332 73.1559C441.432 66.6991 445.681 59.9025 449.25 52.0863C450.95 48.1783 452.48 44.1003 453.16 39.1728C453.5 36.7939 453.67 34.0753 453.16 31.1867Z" fill="#407BFF"/>
<path opacity="0.7" d="M453.16 39.1727C452.65 43.2507 451.46 46.649 450.1 50.0473C449.76 50.727 449.59 51.4067 449.25 52.0863C445.681 59.9024 441.432 66.6991 436.332 73.1558L428.343 67.7185C431.573 61.0918 434.632 54.1253 436.672 47.3287C437.352 44.9499 437.862 42.571 438.202 40.5321C438.372 39.5126 438.372 38.663 438.542 37.8134C438.542 37.1337 438.542 36.4541 438.542 35.9443C437.692 35.7744 436.672 35.6045 435.482 35.6045C433.783 35.4346 432.083 35.4346 430.383 35.6045C430.213 35.6045 430.043 35.6045 430.043 35.6045C426.643 35.7744 423.074 35.9443 419.504 36.2842C412.365 36.9638 404.886 37.9833 397.747 39.1727C397.577 39.1727 397.237 39.1727 397.067 39.3426L394.178 22.521C402.167 21.1617 409.986 20.1422 418.145 19.6324C422.224 19.2926 426.303 19.1227 430.553 19.2926C432.593 19.2926 434.802 19.4625 437.012 19.6324C439.392 19.9723 441.601 20.3121 444.491 21.3316C446.021 21.8413 447.551 22.521 449.76 24.3901C450.78 25.2397 451.8 26.7689 452.48 28.4681C452.82 29.4875 452.82 29.6575 452.99 29.9973L453.16 31.1867C453.67 34.0753 453.5 36.7939 453.16 39.1727Z" fill="white"/>
<path opacity="0.1" d="M430.043 35.6045C426.643 35.7744 423.074 35.9443 419.504 36.2842C412.365 36.9638 404.886 37.9833 397.747 39.1727C400.297 32.7159 403.016 26.2592 403.016 26.2592C403.016 26.2592 414.915 27.4486 430.043 35.6045Z" fill="black"/>
<path opacity="0.1" d="M450.271 50.0474C449.931 50.727 449.761 51.4067 449.421 52.0864C445.851 59.9025 441.602 66.6991 436.503 73.1559L428.514 67.7186C431.743 61.0919 434.803 54.1253 436.843 47.3287C437.522 44.9499 438.032 42.5711 438.372 40.5321C442.282 43.2508 446.191 46.3092 450.271 50.0474Z" fill="black"/>
<path d="M341.654 34.5851C342.164 35.0948 342.164 35.9444 341.824 36.1143C341.484 36.4541 340.805 36.1143 340.295 35.6046C339.785 35.0948 339.785 34.2452 340.125 34.0753C340.465 33.7355 341.144 33.9054 341.654 34.5851Z" fill="#263238"/>
<path d="M342.165 35.7744C342.165 35.7744 343.525 40.1922 343.355 43.0808C345.225 43.2507 346.584 41.3816 346.584 41.3816L342.165 35.7744Z" fill="#DE5753"/>
<path d="M341.145 29.4876C341.145 29.4876 341.315 29.3177 341.315 29.1477C341.315 28.9778 341.145 28.638 340.805 28.8079C338.425 28.9778 337.405 30.677 337.235 30.677C337.065 30.8469 337.235 31.1867 337.405 31.3566C337.575 31.5266 337.915 31.3566 338.085 31.1867C338.085 31.1867 338.935 29.8274 340.975 29.6575C340.975 29.6575 341.145 29.6575 341.145 29.4876Z" fill="#263238"/>
<path d="M358.482 25.4097C364.092 29.4876 374.8 35.7745 380.919 33.3957C380.919 33.3957 386.359 37.9834 381.089 49.3678C375.31 61.9415 372.081 52.5962 372.081 52.5962C373.61 44.95 368.341 42.7411 363.072 41.7216L358.482 25.4097Z" fill="#E4897B"/>
<path d="M360.182 17.7634C365.452 25.4096 368.851 29.4876 368.171 36.1143C367.152 45.9694 355.593 49.7076 348.114 43.9304C341.485 38.6631 334.006 27.1088 338.765 18.7829C343.525 10.4571 354.913 10.2872 360.182 17.7634Z" fill="#E4897B"/>
<path d="M368.681 30.3371C367.831 34.585 353.383 40.5321 346.924 31.1867C346.924 31.1867 338.765 31.1867 333.836 26.0892C328.906 21.1617 329.926 15.7244 334.346 12.8358C338.255 10.2871 348.284 -8.74344 360.182 4.84981C372.76 4.34006 369.701 24.8998 368.681 30.3371Z" fill="#263238"/>
<path d="M344.204 10.9668C344.204 10.9668 336.555 10.627 332.306 14.0253C327.886 17.4236 329.246 28.1283 330.776 30.1673C332.476 32.2063 334.176 32.2063 334.176 32.2063C334.176 32.2063 331.626 30.847 331.626 28.9779C331.626 28.9779 332.816 31.5266 337.915 32.2063C337.915 32.2063 336.385 31.0169 336.725 29.4876C336.725 29.4876 339.445 33.0559 345.904 29.4876C352.533 25.9194 344.204 10.9668 344.204 10.9668Z" fill="#263238"/>
<path d="M350.663 29.6575C352.023 31.6964 352.533 34.0753 352.533 36.1143C352.363 39.1727 349.813 39.3426 347.774 37.4736C346.074 35.7744 343.864 32.2062 345.054 29.6575C346.414 27.1087 349.134 27.2786 350.663 29.6575Z" fill="#E4897B"/>
<path d="M365.791 54.6351C365.791 54.6351 364.432 37.4736 375.48 27.9584L388.738 29.1478C388.908 29.1478 381.259 48.0084 365.791 54.6351Z" fill="#407BFF"/>
<path opacity="0.6" d="M365.791 54.6351C365.791 54.6351 364.432 37.4736 375.48 27.9584L388.738 29.1478C388.908 29.1478 381.259 48.0084 365.791 54.6351Z" fill="white"/>
<path d="M404.206 93.2058C404.206 93.2058 384.149 73.4956 361.882 59.5625C361.882 59.5625 376.67 24.7299 395.537 21.6714C395.537 21.6714 443.981 36.2841 458.089 76.0444L404.206 93.2058Z" fill="#407BFF"/>
<path d="M406.756 213.676L398.087 217.414L388.738 197.704L397.407 193.966L406.756 213.676Z" fill="#E4897B"/>
<path d="M457.919 76.0444L452.82 130.417C449.93 132.456 445.511 134.156 440.072 135.345C429.533 137.894 415.255 138.913 403.187 139.593C389.418 140.272 378.2 140.442 377.18 141.292C374.8 143.161 405.056 205.52 405.056 205.52L390.608 207.389C390.608 207.389 352.703 155.395 347.774 137.384C345.904 130.757 344.204 122.431 356.443 114.615C367.151 107.819 407.266 102.551 407.266 102.551L404.206 93.2059L457.919 76.0444Z" fill="#263238"/>
<path opacity="0.2" d="M440.071 135.345C429.533 137.894 415.255 138.913 403.186 139.593C401.486 119.543 411.685 100.342 411.685 100.342L425.963 96.6042L440.071 135.345Z" fill="black"/>
<path d="M533.219 205.69L534.749 215.035L513.332 219.453L511.802 210.108L533.219 205.69Z" fill="#E4897B"/>
<path d="M535.259 215.375C535.259 215.375 535.089 215.205 535.089 215.375C534.919 215.375 534.919 215.545 534.919 215.545C534.919 215.715 535.089 219.453 536.279 220.643C536.449 220.813 536.789 220.982 537.129 220.982C537.639 220.982 537.809 220.643 537.979 220.473C538.318 219.793 537.809 218.774 537.129 217.754C536.279 216.735 535.599 215.715 535.259 215.375ZM535.259 216.055C536.449 217.414 537.639 219.453 537.299 220.133C537.299 220.303 537.129 220.303 536.789 220.303C536.619 220.303 536.449 220.303 536.279 220.133C536.109 219.963 536.109 219.963 535.939 219.793C535.599 218.943 535.429 217.074 535.259 216.055Z" fill="#407BFF"/>
<path d="M535.09 215.205H534.92C534.75 215.205 532.88 216.734 532.54 218.434C532.54 218.943 532.54 219.283 532.88 219.623C533.22 220.133 533.56 220.133 533.9 219.963C534.92 219.623 535.43 216.565 535.26 215.375C535.26 215.375 535.26 215.375 535.09 215.205ZM533.05 218.434C533.22 217.414 534.24 216.395 534.92 215.885C534.92 217.244 534.41 219.453 533.73 219.623C533.73 219.623 533.56 219.623 533.22 219.453C533.22 219.453 533.22 219.453 533.22 219.283C533.05 219.113 532.88 218.773 533.05 218.434Z" fill="#407BFF"/>
<path d="M533.56 215.205L528.12 206.37C527.95 206.03 527.95 205.69 528.29 205.35L534.41 199.403C535.09 198.723 536.109 198.893 536.619 199.743C538.489 202.971 541.209 207.559 543.588 211.637C546.478 216.225 549.198 220.133 552.597 225.57C554.637 228.798 551.917 231.857 550.727 230.667C545.458 225.23 542.229 220.133 535.429 216.904C534.58 216.395 534.07 215.885 533.56 215.205Z" fill="#263238"/>
<path d="M457.92 76.0444C457.92 76.0444 475.257 120.392 446.021 137.724C446.021 137.724 445.681 189.038 452.99 194.985C461.999 202.292 527.61 206.03 527.61 206.03L527.1 222.342C527.1 222.342 456.73 228.119 435.483 220.473C410.496 211.467 405.057 93.8856 405.057 93.8856L457.92 76.0444Z" fill="#263238"/>
<path opacity="0.2" d="M438.031 103.401L448.57 100.172C448.57 100.172 449.93 109.178 449.93 114.105L445 118.353L440.411 116.824C440.411 116.654 439.221 107.139 438.031 103.401Z" fill="black"/>
<path d="M407.607 93.2058L408.967 97.6236L405.057 98.813L403.697 94.3952L407.607 93.2058Z" fill="#263238"/>
<path d="M425.624 87.4287L426.984 92.0164L411.006 96.944L409.477 92.6961L425.624 87.4287Z" fill="#263238"/>
<path d="M445.511 81.1418L447.041 85.7296L429.023 91.3368L427.663 86.7491L445.511 81.1418Z" fill="#263238"/>
<path d="M460.129 81.6516L449.081 85.0499L447.551 80.4621L458.599 76.8939L460.129 81.6516Z" fill="#263238"/>
<g opacity="0.2">
<path d="M407.607 93.2058L408.967 97.6236L405.057 98.813L403.697 94.3952L407.607 93.2058Z" fill="white"/>
<path d="M425.624 87.4287L426.984 92.0164L411.006 96.944L409.477 92.6961L425.624 87.4287Z" fill="white"/>
<path d="M445.511 81.1418L447.041 85.7296L429.023 91.3368L427.663 86.7491L445.511 81.1418Z" fill="white"/>
<path d="M460.129 81.6516L449.081 85.0499L447.551 80.4621L458.599 76.8939L460.129 81.6516Z" fill="white"/>
</g>
<path d="M395.368 214.526C395.538 214.526 395.538 214.356 395.538 214.356C395.538 214.186 395.538 214.186 395.368 214.186C395.198 214.186 391.968 212.317 390.268 212.826C389.928 212.996 389.758 213.166 389.588 213.336C389.418 213.846 389.418 214.186 389.588 214.356C389.928 214.865 391.118 215.035 392.308 215.035C393.668 214.865 394.858 214.695 395.368 214.526ZM394.688 214.356C392.988 214.695 390.608 214.695 390.098 214.016C390.098 214.016 389.928 213.846 390.098 213.506C390.098 213.336 390.268 213.166 390.608 213.166C390.778 213.166 390.948 213.166 391.118 213.166C392.138 213.166 393.838 213.846 394.688 214.356Z" fill="#407BFF"/>
<path d="M395.538 214.526L395.708 214.356C395.708 214.186 395.368 211.637 394.178 210.787C393.838 210.448 393.328 210.448 392.988 210.448C392.309 210.448 392.139 210.787 392.139 211.127C391.969 212.147 394.348 214.186 395.368 214.696C395.368 214.526 395.368 214.526 395.538 214.526C395.368 214.526 395.368 214.526 395.538 214.526ZM393.668 211.127C394.518 211.807 394.858 213.336 395.028 214.016C393.838 213.336 392.309 211.807 392.309 211.127C392.309 211.127 392.309 210.957 392.818 210.787H392.988C393.158 210.787 393.498 210.957 393.668 211.127Z" fill="#407BFF"/>
<path d="M396.387 213.336L406.756 213.166C407.096 213.166 407.436 213.336 407.606 213.846L409.646 222.172C409.816 223.021 409.136 223.871 408.286 223.871C404.546 223.871 399.277 223.871 394.518 223.871C389.078 224.041 384.319 224.381 378.03 224.551C374.12 224.721 372.93 220.812 374.63 220.303C381.939 218.434 388.058 218.264 394.348 214.186C394.688 213.676 395.537 213.336 396.387 213.336Z" fill="#263238"/>
<path opacity="0.7" d="M457.919 76.0443L404.206 93.2058C404.206 93.2058 394.688 83.8605 381.599 73.6655C379.05 71.7965 376.5 69.7575 373.78 67.7185C370.041 64.9998 365.961 62.2812 361.882 59.7325C361.882 59.7325 376.67 24.8998 395.537 21.8413C395.367 21.6714 443.981 36.454 457.919 76.0443Z" fill="white"/>
<path opacity="0.1" d="M381.599 73.6655C379.05 71.7965 376.5 69.7575 373.78 67.7185L374.8 64.4901C374.8 64.4901 379.39 68.2283 381.599 73.6655Z" fill="black"/>
<path d="M303.92 109.008L300.18 109.858C299.33 110.027 298.48 110.877 298.48 111.727L297.631 116.824C297.461 117.844 298.14 119.033 299.16 119.373L301.88 120.392C301.88 120.392 309.699 126 316.328 122.431L313.438 114.785L307.829 109.688C306.639 109.178 305.28 108.668 303.92 109.008Z" fill="#E4897B"/>
<path d="M371.401 60.922C376.16 63.8106 376.5 69.5877 376.5 69.5877C376.5 69.5877 372.761 79.7827 370.551 84.7102C369.021 88.1085 367.492 91.5068 365.792 94.9051C363.922 98.3035 362.222 101.702 359.163 105.44L358.653 106.12L357.973 106.799C357.633 107.309 356.953 107.819 356.273 108.328C355.933 108.498 355.593 108.838 355.083 109.178C354.743 109.518 354.233 109.858 354.063 109.858L352.704 110.537C350.834 111.557 349.134 112.237 347.264 112.916C343.695 114.276 340.295 115.635 336.896 116.824C329.927 119.203 322.957 121.242 315.988 123.111L312.589 114.106C318.878 110.877 325.507 107.819 331.796 104.59C335.026 103.061 338.085 101.362 341.145 99.8327C342.675 98.9831 344.205 98.1335 345.395 97.4539L346.244 96.9441C346.244 96.7742 346.414 96.7742 346.584 96.6043L346.754 96.2645L346.924 95.9246C348.284 93.8857 349.814 90.8272 351.174 87.9386C352.534 84.8801 353.893 81.6517 355.083 78.4233C357.633 71.9665 359.843 65.1699 362.052 58.7131C362.222 58.8831 366.302 58.0335 371.401 60.922Z" fill="#407BFF"/>
<path opacity="0.7" d="M371.401 60.922C376.16 63.8106 376.5 69.5877 376.5 69.5877C376.5 69.5877 372.761 79.7827 370.551 84.7102C369.021 88.1085 367.492 91.5068 365.792 94.9051C363.922 98.3035 362.222 101.702 359.163 105.44L358.653 106.12L357.973 106.799C357.633 107.309 356.953 107.819 356.273 108.328C355.933 108.498 355.593 108.838 355.083 109.178C354.743 109.518 354.233 109.858 354.063 109.858L352.704 110.537C350.834 111.557 349.134 112.237 347.264 112.916C343.695 114.276 340.295 115.635 336.896 116.824C329.927 119.203 322.957 121.242 315.988 123.111L312.589 114.106C318.878 110.877 325.507 107.819 331.796 104.59C335.026 103.061 338.085 101.362 341.145 99.8327C342.675 98.9831 344.205 98.1335 345.395 97.4539L346.244 96.9441C346.244 96.7742 346.414 96.7742 346.584 96.6043L346.754 96.2645L346.924 95.9246C348.284 93.8857 349.814 90.8272 351.174 87.9386C352.534 84.8801 353.893 81.6517 355.083 78.4233C357.633 71.9665 359.843 65.1699 362.052 58.7131C362.222 58.8831 366.302 58.0335 371.401 60.922Z" fill="white"/>
<path d="M60.5127 511.878H347.605L499.565 389.199L506.194 397.355H543.589L581.664 222.002L544.269 222.172V222.002L364.772 222.342L386.19 248.848L60.5127 511.878Z" fill="#407BFF"/>
<path opacity="0.2" d="M60.5127 511.878H310.21L484.777 370.848L506.194 397.355L544.269 222.002L364.772 222.342L386.19 248.848L60.5127 511.878Z" fill="white"/>
<path d="M54.733 501.683H260.916C260.746 500.833 260.746 499.984 260.746 498.964C260.746 485.711 271.454 475.006 284.713 475.006C285.053 475.006 285.222 475.006 285.562 475.006C288.622 467.02 296.271 461.243 305.45 461.243C317.178 461.243 326.697 470.758 326.697 482.482C337.066 482.992 345.395 491.318 345.904 501.683H346.924C352.704 501.683 357.633 506.44 357.633 512.388C357.633 518.165 352.874 523.092 346.924 523.092H54.733C48.9538 523.092 44.0244 518.335 44.0244 512.388C44.0244 506.61 48.7838 501.683 54.733 501.683Z" fill="#407BFF"/>
<path opacity="0.7" d="M54.733 501.683H260.916C260.746 500.833 260.746 499.984 260.746 498.964C260.746 485.711 271.454 475.006 284.713 475.006C285.053 475.006 285.222 475.006 285.562 475.006C288.622 467.02 296.271 461.243 305.45 461.243C317.178 461.243 326.697 470.758 326.697 482.482C337.066 482.992 345.395 491.318 345.904 501.683H346.924C352.704 501.683 357.633 506.44 357.633 512.388C357.633 518.165 352.874 523.092 346.924 523.092H54.733C48.9538 523.092 44.0244 518.335 44.0244 512.388C44.0244 506.61 48.7838 501.683 54.733 501.683Z" fill="white"/>
</svg>
